<?xml version="1.0" encoding="UTF-8"?>
<svg id="Layer_1" data-name="Layer 1" xmlns="http://www.w3.org/2000/svg" viewBox="0 0 228.13 228.13">
  <defs>
    <style>
      .cls-1 {
        fill: #d7d5d2;
      }

      .cls-2 {
        fill: #023577;
      }

      .cls-3 {
        fill: #040404;
      }

      .cls-4 {
        fill: #c41030;
      }

      .cls-5 {
        fill: #fdfdfd;
      }
    </style>
  </defs>
  <g id="tdzks1.tif">
    <g>
      <path class="cls-1" d="M228.13,114.06c0,63-51.07,114.06-114.06,114.06S0,177.06,0,114.06,51.07,0,114.06,0s114.06,51.07,114.06,114.06ZM225.36,114.08c0-61.46-49.82-111.28-111.28-111.28S2.8,52.62,2.8,114.08s49.82,111.28,111.28,111.28,111.28-49.82,111.28-111.28Z"/>
      <path class="cls-5" d="M225.36,114.08c0,61.46-49.82,111.28-111.28,111.28S2.8,175.53,2.8,114.08,52.62,2.8,114.08,2.8s111.28,49.82,111.28,111.28ZM47.73,43.43l-24.38,36.81,6.62,4.38,24.38-36.81-6.62-4.38ZM180.46,43.56l-6.62,4.39,11.26,16.99,6.62-4.39-11.26-16.99ZM56.78,49.48l-24.3,36.62,6.6,4.38,24.3-36.62-6.6-4.38ZM171.33,49.41l-6.62,4.39,24.39,36.8,6.62-4.39-24.39-36.8ZM72.22,59.56c-2.21-.39-5.02-4.54-6.81-3.02l-23.4,34.82c-.38.52-.11.73.21,1.13.64.81,5.39,3.86,6.32,3.31l23.68-36.24ZM162.49,55.58l-6.65,4.32,11.14,17.16,6.65-4.32-11.14-17.16ZM193.44,63.06l-6.61,4.36,11.3,17.13,6.61-4.36-11.3-17.13ZM74.98,95.88c-16.59,35.19,17.94,71.95,54.21,58.98,8.89-3.18,20.21-12.22,23.52-21.26.08-.21.32-.39.45-.91.04-.14-.03-.31,0-.45,7.72-14.39,4.58-33.92-5.9-46.15-20.78-24.25-58.71-18.99-72.28,9.78ZM175.24,75.02l-6.48,4.3,11.51,17.32,6.48-4.3-11.51-17.32ZM48.18,131.75l-6.6,4.38,24.3,36.62,6.6-4.38-24.3-36.62ZM180.15,131.7l-11.31,17.12,6.61,4.37,11.31-17.12-6.61-4.37ZM39.09,137.63l-6.64,4.34,11.27,17.23,6.64-4.34-11.27-17.23ZM189.13,137.74l-11.27,17.14,6.58,4.33,11.27-17.14-6.58-4.33ZM30.17,143.75l-6.6,4.36,24.31,36.77,6.6-4.36-24.31-36.77ZM198.33,143.65l-11.51,17.32,6.48,4.3,11.51-17.32-6.48-4.3ZM167.27,151.18l-11.43,17.16,6.49,4.32,11.43-17.16-6.49-4.32ZM52.2,157.27l-6.6,4.34,11.26,17.13,6.6-4.34-11.26-17.13ZM176.25,157.28l-11.43,17.16,6.49,4.32,11.43-17.16-6.49-4.32ZM185.26,163.29l-11.38,17.09,6.49,4.32,11.38-17.09-6.49-4.32Z"/>
      <g>
        <rect class="cls-3" x="185.42" y="150.57" width="20.8" height="7.78" transform="translate(-41.18 232.13) rotate(-56.41)"/>
        <rect class="cls-3" x="167.54" y="138.49" width="20.52" height="7.92" transform="translate(-39.07 212.25) rotate(-56.54)"/>
        <rect class="cls-3" x="176.53" y="144.53" width="20.51" height="7.88" transform="translate(-39.87 223.03) rotate(-56.69)"/>
        <rect class="cls-3" x="154.49" y="158.03" width="20.62" height="7.8" transform="translate(-61.32 209.36) rotate(-56.34)"/>
        <rect class="cls-3" x="163.47" y="164.12" width="20.62" height="7.8" transform="translate(-62.38 219.56) rotate(-56.34)"/>
        <rect class="cls-3" x="172.55" y="170.1" width="20.53" height="7.79" transform="translate(-63.32 229.77) rotate(-56.35)"/>
      </g>
      <g>
        <rect class="cls-3" x="176.24" y="47.93" width="7.94" height="44.14" transform="translate(-8.67 111.22) rotate(-33.54)"/>
        <rect class="cls-3" x="178.81" y="44.06" width="7.94" height="20.38" transform="translate(.45 109.99) rotate(-33.53)"/>
        <rect class="cls-3" x="173.87" y="75.43" width="7.78" height="20.8" transform="translate(-17.8 112.67) rotate(-33.59)"/>
        <rect class="cls-3" x="191.82" y="63.55" width="7.92" height="20.52" transform="translate(-8.29 120.01) rotate(-33.41)"/>
        <rect class="cls-3" x="160.76" y="56.09" width="7.93" height="20.46" transform="translate(-9.55 100.39) rotate(-32.99)"/>
      </g>
      <g>
        <g>
          <rect class="cls-3" x="16.78" y="60.06" width="44.15" height="7.94" transform="translate(-35.99 61.07) rotate(-56.49)"/>
          <rect class="cls-3" x="25.96" y="66.01" width="43.95" height="7.92" transform="translate(-36.88 71.23) rotate(-56.44)"/>
          <path class="cls-3" d="M72.22,59.56l-23.68,36.24c-.94.55-5.68-2.5-6.32-3.31-.32-.41-.59-.61-.21-1.13l23.4-34.82c1.8-1.52,4.61,2.63,6.81,3.02Z"/>
        </g>
        <g>
          <rect class="cls-3" x="53.06" y="130.27" width="7.92" height="43.95" transform="translate(-74.67 56.91) rotate(-33.56)"/>
          <rect class="cls-3" x="35.07" y="142.28" width="7.91" height="44.08" transform="translate(-84.15 48.77) rotate(-33.47)"/>
          <rect class="cls-3" x="50.58" y="157.76" width="7.9" height="20.5" transform="translate(-83.31 57.56) rotate(-33.31)"/>
          <rect class="cls-3" x="37.43" y="138.12" width="7.94" height="20.58" transform="translate(-74.48 46.86) rotate(-33.18)"/>
        </g>
      </g>
      <g>
        <path class="cls-4" d="M153.15,132.25c4.77-23.36-21.55-37.51-37.74-19.78-.92,1.01-1.44,2.27-2.27,3.18-16.6,18.1-43.17,3.63-38.17-19.76,13.57-28.77,51.5-34.03,72.28-9.78,10.47,12.22,13.62,31.76,5.9,46.15Z"/>
        <path class="cls-2" d="M153.15,132.25c-.03.15.04.31,0,.45l-.45.91c-3.31,9.04-14.63,18.08-23.52,21.26-36.27,12.97-70.8-23.79-54.21-58.98-5,23.4,21.57,37.86,38.17,19.76.83-.91,1.35-2.17,2.27-3.18,16.18-17.72,42.5-3.58,37.74,19.78Z"/>
        <path class="cls-4" d="M152.7,133.61l.45-.91c-.13.52-.38.7-.45.91Z"/>
      </g>
    </g>
  </g>
</svg>