<?xml version="1.0" encoding="UTF-8"?>
<svg id="Layer_1" data-name="Layer 1" xmlns="http://www.w3.org/2000/svg" viewBox="0 0 223.62 223.61">
  <defs>
    <style>
      .cls-1 {
        fill: #e82a2c;
      }

      .cls-2 {
        fill: #fee50c;
      }
    </style>
  </defs>
  <path class="cls-1" d="M223.62,111.81c0,61.75-50.06,111.81-111.81,111.81S0,173.55,0,111.81,50.06,0,111.81,0s111.81,50.06,111.81,111.81ZM100.33,95.84h-37.44l29.86,22.27-11.15,35.62,30.37-21.87,30.04,21.87-11.15-35.62,29.86-22.27h-37.44l-11.73-35.44-11.24,35.44Z"/>
  <polygon class="cls-2" points="100.33 95.84 111.57 60.39 123.29 95.84 160.73 95.84 130.87 118.11 142.01 153.73 111.97 131.86 81.61 153.73 92.75 118.11 62.89 95.84 100.33 95.84"/>
</svg>