<?xml version="1.0" encoding="UTF-8"?>
<svg id="Layer_1" data-name="Layer 1" xmlns="http://www.w3.org/2000/svg" viewBox="0 0 1796.72 426.45">
  <defs>
    <style>
      .cls-1 {
        fill: #231f20;
      }
    </style>
  </defs>
  <path class="cls-1" d="M120.28,346.97c.57,12.09,2.3,23.6,2.3,35.11.58,16.11-7.48,27.05-20.72,33.96-8.63,5.18-17.84,7.48-27.05,7.48-26.47,0-48.34-27.05-53.52-51.22-1.73-5.75-2.3-12.66-3.46-18.42-2.3-11.51-4.03-22.45-6.33-33.38-1.15-9.78-4.03-19.57-4.03-29.35-1.15-35.68-.57-71.37-1.15-107.05-1.15-8.63-2.88-16.69-3.45-25.32-.57-5.75-1.73-10.36-1.73-14.96-.58-7.48-1.15-14.39-1.15-20.72.57-16.11,4.03-31.08,10.36-44.89C23.02,50.01,56.98,6.27,90.36,1.09c9.21-2.3,17.84-.57,26.47,1.73,12.09,4.03,23.6,8.63,35.68,12.09,9.78,2.3,20.14,2.88,30.5,1.15,10.94-1.73,21.87-4.61,32.8-6.91,10.94-1.15,21.29-1.73,31.66,0,14.39,2.3,28.2,6.33,40.86,12.08,18.42,10.36,37.41,23.6,44.32,44.32,4.03,14.39,9.21,37.41,12.08,51.79,3.46,15.54,4.6,29.93,2.88,45.47-1.73,13.81-4.6,27.05-9.21,39.71-17.26,40.29-50.07,60.43-92.08,69.64-9.21,2.3-18.99,5.75-28.78,6.91-7.48,1.15-14.96,0-21.87-.57-9.21-.58-18.99-2.3-28.2-3.46-6.33-1.15-12.66-2.3-19.57-1.73-19.57,1.73-25.32,2.3-27.62,23.02v50.65ZM132.94,105.83c-4.03,8.63-4.03,17.84-4.61,27.05-.57,13.24,0,27.05,2.88,39.71,6.33,25.32,27.63,25.32,48.92,25.32,11.51,1.15,23.02,0,35.11-.57,14.39-1.15,27.05-6.33,35.68-17.84,10.36-13.24,12.09-28.2,8.63-43.74-4.6-16.11-17.84-34.53-35.11-37.98-9.21-1.73-19.57-2.3-29.35-2.88-18.42,0-28.78,0-48.92,1.15-6.33,0-10.94,4.03-13.24,9.78Z"/>
  <path class="cls-1" d="M557.67,378.63c-25.32,31.65-52.37,40.28-89.78,46.61-8.06,1.15-16.69,1.73-25.32.58-26.47-3.46-56.98-8.63-80-23.02-8.63-5.18-16.69-11.51-25.32-17.84-34.53-24.17-49.49-76.54-51.22-116.25-1.15-16.69.58-33.38,4.03-49.49,12.66-62.16,73.09-110.5,136.4-110.5,6.91-.57,13.81,0,20.72-.57,35.68,0,78.27,21.87,107.05,40.28,31.08,21.29,42.59,61,42.59,96.69,0,46.62-7.48,97.26-39.14,133.52ZM384.44,219.21c-8.06,21.29-13.24,42.59-8.63,65.61,4.6,19.57,16.69,49.49,41.44,49.49,23.02,0,36.83-28.77,44.89-46.62,6.33-13.24,7.48-27.62,4.6-41.44-3.46-17.26-6.91-33.96-6.91-51.79,0-14.39-14.97-16.69-27.05-16.69-27.63,0-39.14,18.99-48.34,41.44Z"/>
  <path class="cls-1" d="M575.51,259.49c0-23.59-1.15-46.04-.58-69.64.58-17.26-.57-35.1,4.61-51.79,6.33-23.6,20.72-25.32,42.01-25.32,5.75,0,11.51.57,17.26,2.88,4.61,1.73,9.78,5.18,13.81,8.63,4.03,4.03,7.48,5.75,11.51,5.75,3.46,0,6.91-1.15,10.94-4.03,11.51-6.91,22.45-13.24,35.68-17.26,6.91-1.73,13.81-2.88,21.29-2.88,14.39,0,28.2,4.6,32.23,20.14,4.03,11.51,4.03,24.17,2.3,35.68-4.03,22.45-26.47,27.05-44.89,29.93-12.09,1.73-21.87,7.48-27.63,17.84-22.44,33.96-24.75,54.68-27.05,93.23-.57,25.32-.57,51.22-1.15,76.54-.57,12.08-3.45,23.02-12.08,31.08-8.06,8.63-19.57,12.08-31.08,12.08-6.91,0-13.24-1.15-19.57-2.88-24.17-8.63-27.62-32.23-27.62-54.67v-105.32Z"/>
  <path class="cls-1" d="M787.87,268.13c0-10.36.57-20.15,1.15-30.5,0-9.21.57-19.57.57-29.35.58-16.11-6.91-20.72-18.99-23.59-19.57-4.61-25.32-16.69-24.75-33.96,1.15-17.27,7.48-25.32,26.47-30.5,12.66-2.88,17.84-8.63,18.42-23.02,0-8.06-.57-15.54,0-23.6,0-25.32,17.84-40.28,43.74-40.28,21.29,0,37.41,14.96,43.16,35.11,1.15,6.33,1.73,12.66,2.88,18.99,2.3,12.09,10.94,19.57,20.72,25.9,9.21,5.75,17.26,12.09,22.45,21.87,9.78,16.11,5.18,34.53-8.63,44.89-6.91,5.18-15.54,8.06-23.02,10.94-10.36,4.03-14.96,11.51-14.96,20.72-1.15,33.96-1.15,66.76-1.15,100.14,0,6.33,1.15,12.66,2.88,18.99,1.73,9.78,9.21,15.54,18.99,18.99,5.18,1.73,11.51,4.6,16.69,7.48,6.33,4.03,10.36,9.78,11.51,16.69,2.3,8.63,2.3,16.69-.57,24.17-4.03,12.09-12.66,18.42-24.75,20.72-9.78,2.88-21.87,3.45-32.23,3.45-9.78,0-19.57-1.73-29.93-4.6-39.71-11.51-47.77-44.31-50.65-80.57v-69.06Z"/>
  <path class="cls-1" d="M949.01,227.84c-1.15-16.11-3.45-26.47-17.84-35.68-9.21-5.75-16.69-12.09-21.29-21.87-5.18-12.08-4.03-24.17,4.03-35.1,5.18-5.75,10.94-10.36,17.84-14.97,9.78-7.48,15.54-17.26,17.84-29.35,10.36-51.22,35.68-74.81,90.36-74.81,10.36,0,20.72,1.73,30.5,4.6,12.66,4.6,21.87,17.26,21.87,31.08,0,18.42-5.18,28.2-22.45,34.53-5.75,2.3-12.66,4.03-17.84,7.48-9.21,4.61-12.09,13.24-6.33,20.72,3.46,3.46,8.63,6.33,13.81,8.06,12.66,4.6,22.45,11.51,25.9,25.9,3.46,14.39-2.3,30.5-16.69,38.56-5.18,2.88-11.51,5.75-17.26,8.63-8.05,4.03-11.51,11.51-12.66,20.15-.57,5.75-.57,12.66-1.15,18.99,0,20.72-.57,41.44-.57,61.58v28.78c0,17.26.57,35.11-.57,52.37,0,28.77-13.24,45.47-43.74,45.47-20.14,0-37.41-10.94-41.44-31.66-1.15-8.05-1.73-16.11-2.3-24.75v-138.7Z"/>
  <path class="cls-1" d="M1319.06,378.63c-25.32,31.65-52.37,40.28-89.78,46.61-8.06,1.15-16.69,1.73-25.32.58-26.47-3.46-56.98-8.63-80-23.02-8.63-5.18-16.69-11.51-25.32-17.84-34.53-24.17-49.49-76.54-51.22-116.25-1.15-16.69.58-33.38,4.03-49.49,12.66-62.16,73.09-110.5,136.4-110.5,6.91-.57,13.81,0,20.72-.57,35.68,0,78.27,21.87,107.05,40.28,31.08,21.29,42.59,61,42.59,96.69,0,46.62-7.48,97.26-39.14,133.52ZM1145.84,219.21c-8.06,21.29-13.24,42.59-8.63,65.61,4.6,19.57,16.69,49.49,41.44,49.49,23.02,0,36.83-28.77,44.89-46.62,6.33-13.24,7.48-27.62,4.6-41.44-3.46-17.26-6.91-33.96-6.91-51.79,0-14.39-14.97-16.69-27.05-16.69-27.63,0-39.14,18.99-48.34,41.44Z"/>
  <path class="cls-1" d="M1423.23,103.53v47.77c0,9.78,2.3,19.57,6.91,29.35,2.3,5.18,4.03,12.08,4.03,18.42.58,20.14.58,40.86,1.15,61,0,10.36-1.73,20.14-5.18,30.5-1.73,7.48-2.88,15.54-3.46,23.02,0,20.14.57,40.28,0,60.43,0,28.2-13.24,47.19-43.74,47.19-35.11,0-43.16-24.17-43.16-55.25v-48.35c0-10.36-.58-20.72-1.15-30.5-.58-16.69-1.73-33.38-2.3-50.07-.57-11.51-.57-21.87,0-32.81,1.15-12.66,2.88-25.32,4.03-38.56.58-3.45.58-6.33,1.15-9.78,0-7.48.57-13.81.57-20.72.58-28.2.58-56.98,1.15-85.75,0-15.54,9.78-31.65,27.05-31.65,11.51-1.15,23.02-1.73,33.96,1.73,11.51,4.03,17.84,13.81,17.84,24.75,1.15,19.56.57,39.71.57,59.27h.58Z"/>
  <path class="cls-1" d="M1488.83,92.02c-4.61,4.6-9.21,8.63-13.81,13.24-6.33,6.33-6.33,8.63,0,14.39,6.33,5.75,12.66,11.51,18.42,17.84,13.81,17.27,14.39,42.59,14.39,63.88,0,19.57-.58,47.19-3.46,66.76-3.45,36.83-1.73,74.24-2.3,111.65,0,9.21-2.3,18.42-7.48,27.05-8.64,12.09-21.87,16.69-36.26,16.69-33.38,0-44.89-25.32-44.89-55.82-.57-46.04-.57-92.66,0-138.7,0-9.78.58-18.42.58-27.63,0-6.9-1.15-13.24-.58-20.72,1.73-26.47,2.88-39.14,24.75-56.98,2.88-2.3,5.75-5.75,8.05-9.21,1.15-.57,0-3.45-.57-5.18-1.73-2.3-4.03-4.03-6.33-6.33-10.94-10.36-21.29-20.72-23.6-35.11-2.88-12.66,0-24.17,8.06-33.38,9.21-10.94,20.14-17.27,34.53-17.27,20.72,0,38.56,13.24,43.16,33.96.58,3.46.58,6.33,1.15,9.21,0,12.08-4.6,23.02-13.81,31.65Z"/>
  <path class="cls-1" d="M1757.59,378.63c-25.32,31.65-52.37,40.28-89.78,46.61-8.06,1.15-16.69,1.73-25.32.58-26.47-3.46-56.98-8.63-80-23.02-8.63-5.18-16.69-11.51-25.32-17.84-34.53-24.17-49.49-76.54-51.22-116.25-1.15-16.69.58-33.38,4.03-49.49,12.66-62.16,73.09-110.5,136.4-110.5,6.91-.57,13.81,0,20.72-.57,35.68,0,78.27,21.87,107.05,40.28,31.08,21.29,42.59,61,42.59,96.69,0,46.62-7.48,97.26-39.14,133.52ZM1584.36,219.21c-8.06,21.29-13.24,42.59-8.63,65.61,4.6,19.57,16.69,49.49,41.44,49.49,23.02,0,36.83-28.77,44.89-46.62,6.33-13.24,7.48-27.62,4.6-41.44-3.46-17.26-6.91-33.96-6.91-51.79,0-14.39-14.97-16.69-27.05-16.69-27.63,0-39.14,18.99-48.34,41.44Z"/>
</svg>