<?xml version="1.0" encoding="UTF-8"?>
<svg id="Layer_1" data-name="Layer 1" xmlns="http://www.w3.org/2000/svg" viewBox="0 0 848.31 127.15">
  <g>
    <g>
      <path d="M262.35,27.32c-.34,1.41-.77,2.33-1.44,3.59l3.38,1.49c1.05-2.85,2.82-3.37,5.75-3.15-.24.5-.42,1.95.47,1.91.49-2.01,1.22-3.63,3.38-4.07v-1.2c-3.04,1.63-6.1-.84-4.27-4.02s6.69.9,4.74,4.02l3.58,1c.22,0,.51-2.34,3.76-1.37,1.92.57,1.08,2.83,2.74,2.77-1.96-2.73,1.75-3.97.21-5.72-.77-.87-2.32-1.22-2.51-2.75.1-3.11,4.74-3.64,5.45-.66.17.72-.31,1.39-.16,2.05.21.96,1.57,2.26,1.37,3.68l1.81-.02,1.98-4.73c-1.35.05-3.27.29-3.75-1.3-1.41-4.7,5.64-4.75,4.7-.14h1.92c.05.91-.42,2.03-1.44,1.93,2.96,3.48,2.78-.01,4.32-.72,2.92-1.34,3.98,1.07,4.76,3.38l-4.76,2.61c.19-.51-1.14-3.8-1.92-2.88.01.89-.04,1.81-.53,2.6-.81,1.3-2.63.67-2.35,2.2l4.34.28c1.82-.49,1.37-3.24,4.51-2.68.72.13,1.37.99,1.88.91.48-.08,1.67-1.74,2.58-2.24,1.91-1.05,8.27-2.98,10.02-1.6.64.59.79,1.39.73,2.21-.16,2.14-2.26,2.27,1.9,3.91,1.01,1.39-.18,3.1.19,4,.25.62,1.75,1.6,2.29,3.02.34.89.24,2.39.44,2.68.18.27,1.12.22,1.52.53.45.33.06,1.15.8.98-.33-2.5-3.26-3.6-1.68-6.73.42-.84,1.67-.59,1.69-1.42-3.72.84-4.25-1.45-5.25-4.5,6.63-4.5,5.9,2.4,8.85,5.92l.74-1.64-1.94-1.96,1.44-.24c-1.9-1.96-1.09-2.69-.96-4.8-3.15,1.09-2.93-.88-3.6-.89-.86,0-4.24,3.87-5.52-1.51l9.12.96c.02.47.03.96,0,1.43.88-.31,1.51-1.01,2.65-1,2.66.02,3.01,3.13,2.56,5.25l-3.29.79c1.43,1.24,2.94.31,4.57,1.67.27.23,2.01,2.53,2.07,2.76.38,1.36-1.33,3.45,1.03,3.49.04-.41.19-.89.48-1.18.88-.9,2.4-1.49,2.41-2.65-6.2,1.43-6.43-7.31-.82-5.67,1.58.46,1.26,2.58,2.74,2.31-.76-2.01,2.05-5.83,4.01-5.24.89.27.91,2.2,2.23,1.88l1.44-2.87c-1.94-.42-4.38-4.8-1.92-6.01,3.76-1.85,5.29,3.68,3.36,5.99l2.65.96c-.36,4.28,3.08,5.94,2.17,10.25-1.34,1.68-3.64.05-4.95.39-1.83.47-3.17,5.06-7.06,1.37l-1.45,3.35c2.61.23,4.87-1.03,6.96-2.4.28-.18,3.12-2.96,2.05-.35-.4.97-1.65,1.47.58,1.79-.06-2.16,1.97-3.15,3.84-3.36v6.72l-3.35-.96-1.45,2.64c1.06,1.13,1.56-.74,1.73-.75,1.05-.08,1.77,1.02,3.06-.45v5.76s-1.4-.45-1.4-.45l-2.44,2.61,3.36.72.96-2.4c-.38,4.93.49,12.28-3.35,15.84l-.24-1.44-1.68,2.16,2.87.24c-.44,5.2-2.01,9.86-8.16,9.6,3.29,5.37,5.16,12.32,3.87,18.5l-1.95.22c-.12.09,1.25,2.14,1.36,2.76.39,2.33-4.8,11.49-6.64,13.31-1.02,1.01-5.23,2.29-2.88,2.88-6.46,6.54-15.25,10.4-24.31,11.69s-18.86,1.16-28.04-1.61l.02-1.64-1.2-.51-.23,1.43-7.96-3.35.28-1.92c-1.15-.34-1.77,1.12-2.85.74-1.56-.54-3.82-3.3-5.77-3.67l.47-1.39-1.21-.49-.46.97c-4.07-3.21-9.46-4.68-12.65-8.97-5.07-6.83-4.65-17.8-2.25-25.6,1.2-3.9,1.35-3.16,5.04-4.56l-2.88-.48c1.82-2.33,3.5-4.76,5.75-6.73.43-.38,2.73-2.33,2.9-2.41.6-.25,3.3.27,4.31-.23.55-1.14-1.94-1.43-1.43-1.91.95-.91,7.01-3.7,8.54-4.19,3.5-1.11,6.56-1.16,10.18-1.57l-1.44,2.39,2.88.48-.96-1.91c.27-.21,2.12,1.14,2.4-.48l-1.44-.48c2.76.61,5.15-1.82,6.71.96.23-1.97,2.75-1.9,4.33-1.92-4.07-4.81-9.57-9.69-10.09-16.31l-.71,2.39c-1.7-1.93-3.19-3.35-6-2.88l.48-1.91-2.13-.5-1.71,2.66,1.43.96c-1.29,1.09-1.99,3.95-3.35,4.75-.27.16-.91-.21-.94-.17-.14.23.01,1.21-.3,1.86-1.32,2.75-6.68,9.83-9.58,10.6-1.39.37-.12-1.56-1.19-1.43.59,3.12-4.2,4.02-6.24,2.39l-.27,1.48c-11.74,1.67-25.63-5.5-13.9-17.31.21,1.7,1.91,2.26,3.11,3.36-.11-1.46.34-2.64,1.44-3.6l-3.35-1.44,5.52-6.47c1.35.88-.15,1.09-.13,2.05,0,.34.65,2.7.81,2.92.29.41,3.92,1.95,3.89.31-4.18.36-5.32-5.82-.96-6.25l-1.91-.71,3.12-3.59c2,1.66.99,4.78,2.64,6.23-.8-1.24.52-2.93.41-3.53-.3-1.71-5.12-2.64.37-6.97,1.53.15,2.32,1.59,3.54,2.34.42-1.73-.67-3.99,2.71-4.18,3.12-.17,2.18,2.48,4.01,3.45-2.21,3.91-3.72,2.57-6.72.73ZM311.78,24.44h-.95c1.13.92-.41,4.34-1.06,4.7-.81.45-4.48.06-5.2.38-.53.23-.88,1.15-1.43,1.4-.93.42-2.13.02-2.88.48s-.44,1.94-2.39,1.42l-.49,1.22c2.1-.23,2.44,1.94,3.84,2.88-1.79-3.31,2.34-7.08,5.07-4.34.77.78.58,2.05,1.65,2.42-1.33-3.98.06-6.21,4.32-5.28v-1.44s2.88.48,2.88.48c-.25-2.18-3.53-1.75-3.36-4.32ZM290.67,29.72l-1.27-1.34-3.68.86-1.28,2.65.94.72c.72-2.62,2.81-3.24,5.29-2.89ZM351.63,29.72c-1.61.28-2.23-.61-3.35-1.44-.51,3.06-3.06,3.98-5.75,2.88.03,1.69-1.2,1.84-1.93,2.87,3.53,1.22,3.53-2.12,6.07-2.25,1.52-.08,2.4,1.02,3.52,1.78l-.95-2.88c1.23.4,2.4.84,2.4-.96ZM281.55,31.17c-2.22.45-2.99-1.49-4.8-1.92l-.6,3.24c-1.12,1.1-6.34.32-6.61,2.99.63.01,1.35-.05,1.93.24.85.43.59,1.66,1.43,1.68.14-4.05,4.31-3.93,7.15-5.09.44-.18,1.55-.56,1.49-1.14ZM314.85,32.91c-.38-.43-.51-1.19-1.13-1.27.17,1.96-1.46,2.91-2.41,4.31,2.15-.34,3.28.68,4.8,1.92-.86-1.41-.03-3.27-.14-4.12-.06-.42-.85-.54-1.12-.85ZM327.15,38.36c1.39.06,2.8,1.11,3.88-.2l.38-1.38-2.1-1.78-2.17,3.35ZM310.83,35.97c-2.41,0-3.87-.71-4.8,1.91l3.35,1.93c-.32-1.81.38-2.58,1.44-3.84ZM321.87,40.28c-.7-1.61-1.88.06-3.66-.38-.89-.22-1.37-.62-2.1-1.06l-.48,2.88c2.58.68,3.81-1.68,6.24-1.44ZM296.42,44.12l.96-3.56c-1.72-1.78-4.14-1.44-3.78,1.32l2.83,2.24ZM272.97,40.68l-.07-.88c-.68-.2-.45.72-.98,1.17-1.01.85-3.06.74-2.85,2.19l7.19-2.4-3.29-.07ZM311.24,45.04l1.5-2.12-3.35-2.16-.46,3.81,2.3.46ZM263.31,44.13l-3.36-.96c-.08,1.76-.05,3.4,1.89,3.83l1.46-2.87ZM306.03,45.09l-2.64-1.45c-1.42,1.63.31,3.05,1.45,4.32l1.2-2.87ZM348.75,45.09c-.52-.39-4.56.74-4.8,1.91l3.84,1.44c-.14-1.28.34-2.3.96-3.35ZM270.5,51.8l.22-1.94-2.13-3.34c.39,1.61-.61,2.45-.96,3.83l2.87,1.45ZM334.34,61.4c.58-2.67-1.64-13.66-4.56-13.92l-6.47.49c1.41,3.28,3.8,5.89,4.09,9.59l6.95,3.85ZM351.63,51.33l-3.52.05-1.28,1.86,2.87.96c-.27-1.89,1.2-1.78,1.92-2.88ZM327.63,66.21l-3.33-.46-.51,2.37,2.33.44,1.51-2.35ZM310.34,109.4c.02-.61.2-1.1.81-1.35,1.35-.57,4.43-.94,6.18-1.51,2.16-.7,3.56-2.45,5.98-1.69.26-2.5,2.27-3.43,3.44-5.69,3.46-6.65,2.12-15.51-2.49-21.2-.51-.63-1.47-.85-1.95-1.43-.34-.42-.01-1.26-.42-1.48-.5-.27-1.33.21-2.28-.08-1.78-.54-4.96-3.02-7.18-3.91-6.47-2.6-15.3-2.36-21.62.81-5.32,2.67-6.81,10.53-7.92,15.87l-1.36.06c1.43,5.4-2.56,7.31.23,12.96,1.45,2.93,3.06,3.91,5.07,5.99.49.51.15,1.46,1.06,1.86,1.72.75,7.76-.31,10.22-.19,1.52.07,2.97.74,4.54.5l-.48,1.91,1.63.51,1.06-2.45c2.06.46,3.92-1.08,5.46.51Z"/>
      <g>
        <g>
          <path d="M279.62,17.72c0,1.19,1.17,2.22,1.37,3.24.56,2.86-4.19,4.96-4.99,2.08-.89-3.19,1.08-4.17,3.62-5.32Z"/>
          <path d="M272.32,18.58c-.1.18-1.75,1.01-2.09,1.06-3.04.45-2.71-2.65-2.6-4.8,2.42-.64,6.35.82,4.69,3.74Z"/>
          <path d="M281.85,11.1c3.19-.59,5.64,6.6.52,5.08-2.25-.67-2.43-4.73-.52-5.08Z"/>
          <circle cx="276.08" cy="15.35" r="2.41"/>
          <path d="M297.24,12.98c1.43-.37,4.43,1.73,2.77,3.76-3,3.67-6.42-2.83-2.77-3.76Z"/>
          <path d="M264.99,17.25c3.07,2.88-.57,7.03-3.59,4.07l3.59-4.07Z"/>
          <path d="M291.63,11c.1,3.23-5.05,2.96-4.32-.48l4.32.48Z"/>
        </g>
        <g>
          <path d="M336.75,16.76c.63,2.76-2.04,4.15-4.32,4.8.16-2.01-1.15-3.46.25-5.27s2.32-.35,3.31-.57c.59-.13.89-1.68,2.17-2.12,5.01-1.71,6.7,5.03,2.24,4.59-1.33-.13-2.3-1.44-3.65-1.44Z"/>
          <path d="M354.97,9.58c.07,1.65,1.1,3.32-.94,4.06,1.8,1.69,1.84,4.63,1.92,6.96-1.39.26-2.72-1.16-3.1-2.35-.13-.4.34-1.07.14-1.37-.26-.39-2.03-.88-1.83-2.25l1.44-.75c-1.83-2.62-.97-4.75,2.38-4.29Z"/>
          <path d="M335.17,21.64c4.86-1.46,5.78,7.36-.26,5.36-2.76-.91-1.45-4.85.26-5.36Z"/>
          <path d="M342.39,19.23c.4-.1.73-.11,1.08.14,5.15,5.19-3.92,8.62-3.87,2.9.01-1.26,1.7-2.77,2.79-3.04Z"/>
          <path d="M349.16,12.03c.33,1.62.24,4.52-1.98,4.19-2.79-.91-2.16-2.89-1.79-5.22l3.77,1.03Z"/>
          <path d="M342.51,7.17c-.08,1.03-1.62.74-1.85,1.03-.36.45.48,3.41-2.16,3.18l-1.53-.84c-1.29-3.32,3.44-2.58,5.53-3.36Z"/>
          <circle cx="344.91" cy="7.16" r="1.54"/>
          <path d="M352.57,6.67c-1.16.81-3.22-.9-2.34-2.33,1.14-1.84,3.72,1.37,2.34,2.33Z"/>
          <path d="M332.43,13.4c.22-.53-.63-4.36.71-3.83,1.81,1.01,1.39,3.57-.71,3.83Z"/>
        </g>
      </g>
    </g>
    <g>
      <g>
        <circle cx="121.79" cy="22.71" r="2.89"/>
        <path d="M92.43,27.32l.48-5.76c5.72.1,4.98,6.33-.48,5.76Z"/>
        <circle cx="119.33" cy="16.29" r="2.53"/>
        <path d="M103.33,11.56c3.55-1.06,3.96,4.03,1.72,4.65-2.61.73-4.28-3.88-1.72-4.65Z"/>
        <path d="M124.23,15.68c-2.28-2.28,2.42-6.94,3.14-1.92.38,2.7-1.62,3.43-3.14,1.92Z"/>
        <circle cx="117.36" cy="9.63" r="1.87"/>
        <path d="M127.47,23c-3.55-.11-2.29-4.37-.24-5.76l.24,5.76Z"/>
        <path d="M125.07,9.08c-2.52.99-5.84-1.14-2.65-2.87l2.65,2.87Z"/>
      </g>
      <g>
        <path d="M112.43,13.73c-.24.29-1.26.56-1.27.87.95,1.6,3.28.93,4.26,2.45,1.3,2.01-.05,4.73.09,4.94.13.18,1.68.51,2.11,1.5.75,1.73-.63,2.15,2.15,3.11l-.83,1.45,1.08,1.19c1.08-3.31,4.52-2.88,7.44-3.35-.11.95.21,2.16,0,3.04-.09.37-1.78.31-.47,2.48l-1.45.25,1.87,1.23-.92,12.21-1.43-.48.95,1.92-1.91-.24c.32.56,1.65.81,1.75,1.41.24,1.38-2.05,9.84-2.24,12.52-.28,4.11-.4,12.79.7,16.57,1.48,5.1,6.06,6.51,5.53,13.18-1.07,13.37-15.96,19.9-27.34,14.13l.46-.92c-2.59.32-5.09-3.54-6.16-5.61-2.82-5.48-2.32-10.82-3.02-16.67-.09-.75-.17-2.63-1.38-2.21,1.15,2.49-1.76,4.89-2.46,7.17l-1.86-.45c-.91,1.14.4,2.44.25,2.88-.54,1.61-5.92,7.49-7.45,8.89-11.5,10.51-28.21,12.58-42.73,7.91l.48-1.91h-1.92s.24,1.43.24,1.43c-9.73-3.98-15.98-11.46-23.28-18.48-1.58-1.52-4.01-3-5.54-4.54C2.53,75.89.26,66.83.27,59l1.91,1.44.02-1.68-1.46-.24c.88-1.13-.41-.73-.64-1.98-.41-2.17.57-14.61,1.18-16.93s.8-2.27,1.15-4.63c.27-1.85,1.2-3.48,1.7-5.25l2.87,1.92c-1.35-4.14-1.05-6.51,1.5-10.02l2.82.9c-.72-4.32,5.8-4.93,5.32-.23-.22,2.18-4.48,3.86-5.8,1.67-1.59,3.23,1.04,3,2.1,5.33.92,2.03.2,4.35,1.97,5.71l1.68-3.35c-5.58-.62-2.18-8.79,1.9-5.99.86.59.65,1.56,1.45,1.66l.11-2.78c7.99-4.21,4.78,3.89,5.17,4.22.12.1.97-.2,1.32.1.42.37.11,2.18,1.56,1.82l2.41-3.83c-3.39.27-5.66-3.51-3.56-6.18,5.88.15,3.91,1.83,5.76,4.7.38.6,1.77.82,1.66,1.95,1.37-1.87,3.16-2.93,5.26-1.2l-3.36,4.08-1.91-.96-.96,4.32,1.43.23c-3.14,6.87-3.1,14.61-4.8,21.85l-1.9-.47-.53,1.62c3.57,1.5.75,5.64,1.1,9.04.29,2.78,2.52,7.5,4.01,9.94,1.34,2.2,3.47,3.98,4.07,6.27,1.17-.61,2.3.16,3.52,0,1.32-.18,2.32-.97,3.89-.98,2.31-.01,5.66,1.49,8.16,1.47,5.46-.03,14.71-3.89,18.49-7.9,2.03-2.16,2.16-4.92,5.77-3.8l.94-2.2-2.12-.53-.77.76,2.74-13.5-.85-6.21,1-1.16c-1.72.41-2.31-5.9-1.94-6.4.22-.3.63-.38.98-.34v-.47c-.94-.12-1.78-.44-2.34-1.26-.13-.19-1.83-3.71-1.89-3.92-.28-1.12.91-2.34-1.04-2.99l-.24,1.44-4.08-3.6c-.28-.97,1.71-1,2.32-1.08,1.18-.17,2.54.87,2.47-1.06-2.19-.14-1.47-2.95-2.87-3.85.3,2.36-.36,4.45-2.88,5.05l-4.32-3.37c1.15-.69,2.22-1.61,3.22-2.5.32-.28.93.03.61-1.1-2.05.82-3.36-.82-5.27-.96l-1.2,2.82-4.57-1.38c-.13-1.44.96-3.17,2.29-3.73.48-.2,1.23.03,1.69-.13s.34-.92.66-.95c.54-.06,1.2.46,1.78.37.68-.1,1.33-1.28,2.47-1.28,1.72-.01,3.27,2.17,3.13,3.81l1.68-.88,1.89,2.21,3.6-.87c-.59-1.7.82-3.01.96-4.09s-1.01-2.02.52-3.31c2-1.69,2.79.14,4.2-.08,1.67-.26,1.62-3.07,3.95-1.88l1.43,3.61c-2.1.23-3.91.07-5.86,1.01-.41.19-.43.7-.73.92-1.07.77-2.01-.09-1.56,2.4,1.89-1.54,3.69,1.19,5.15.65,1.62-1.35.99-3.92,3.93-3.49l1.76,4.28c-.91.23-3.25,2.76-3.46,2.83-1.39.46-3.47-1.46-3.53,1.01,4.35.72,2.74,3.43,3.45,5.91.62,2.14,4.67,3.1.39,7.05,1.63-.2,2.61.58,3.83,1.44l1.93-3.35c-6.78-.74-3.59-9.35,2.39-5.29.5-2.78,2.69-4.36,5.27-2.62.86.58.65,1.57,1.45,1.66-.06-1.71-.21-3.98,1.92-4.32-.06-.87-1.49-.33-2.39-.72-3.33-1.46.37-5.4-.57-6.88l-3.28-.56c-.4-5.28,7.11-5.41,5.68-.81-.37,1.19-1.69.85-1.84,1.77,3.29.42,5.31,3.19,3.36,6.24,3.12-.78,4.17,4.32,2.37,5.98-2.74,2.53-5.05-.43-5.25-.21l-.97,2.87,3.16.34c.97-1.71,2.77-2.17,4.51-1.3v-2.88s2.4,1.44,2.4,1.44c.54-1.94-1.84-1.64-2.31-3.23-.44-1.5.47-2.52.41-3.21-.03-.37-.93-.41-1.17-.79-2.27-3.66-1.22-7.16,3.45-5.63,1.12,1.86.38,3.72.1,5.65,1.89-.26,2.66.58,2.89,2.4.98-.55.21-2.42.91-3.52.37-.57,1.32-.71,1.96-.8-.56-1.37-2.36-1.13-3.38-2.13-1.44-1.41-.32-2.9-.47-3.11-.1-.14-2.08-.34-2.36-1.26-.47-1.54,1.16-1.4,1.36-1.7.14-.2-1.61-3.4,1.44-4.05,2.43.25,2.78,2.18,1.32,3.95ZM75.61,22.05h-1.42c.38,1.52,1.34,2.32,1.45,4.07s-1.76-.96-1.45,1.2c2.13,1.06,3.3-1.54,5.76-1.44l-3.34-1.21-.99-2.62ZM23.79,29.25c-1.62.21-2.64-.12-3.6-1.44l-2.15,3.11,3.81,1.19c-.21-1.86,1.2-1.78,1.94-2.86ZM115.47,27.8l-4.32.48c-.31,1.85,1.98,2.22,2.64,3.84l1.68-4.32ZM77.54,28.28h-.95c2.05,1.81-.05,3.89.04,4.49.03.18,2.01,2.55,2.31,2.88.39.41.34.43,1,.3-.29-1.97.15-2.94,1.44-4.31l-3.36.48-.49-3.84ZM123.14,33.56l-1.69.02-.46-2.42-2.64,3.35c2.31-.66,2.62.91,4.3.95l.49-1.91ZM7.95,34.04l-.97-1.19,1.92,4.55c.05-.8.02-1.87.45-2.56.53-.86,2.64-.7,2.92-1.75l-3.53-.02-.78.97ZM96.27,34.04l-3.36-.96c.28,1.62-.62,2.23-1.44,3.36l2.87.96,1.93-3.36ZM108.89,35.82c-.4-.29-.4-1.28-1.1-1.3l.48,4.32,4.31-2.64c-1.07-.56-2.57.45-3.7-.38ZM23.78,39.8c.01-.68-.1-1.4.1-2.06s2.14-1.74.62-2.25c-1.41-.48-1.69,1.56-2.6,2.23l1.88,2.09ZM103.47,40.29l.45-1.21-2.85-2.63c.25,1.96-.87,2.93-1.92,4.31,1.71-.39,2.45-1.38,4.32-.47ZM30.99,40.29c-2.05.63-3.41,2.43-5.76,1.44l.48,1.92,4.19-1.57,1.09-1.78ZM5.55,42.21l-2.87-1.45c.17,1.54-.09,2.06-1.44,2.64l2.87,1.68c.15-.63.22-1.5.5-2.05s1.12-.09.94-.82ZM98.67,40.77c-2.44-.68-2.16.69-2.89,1.19-.55.38-1.72-.51-1.91.72,1.89-.27,1.79,1.2,2.87,1.92.02-.79-.14-1.66.23-2.41.41-.83,1.68-.58,1.69-1.42ZM19.92,44.64l-2.36-1-.76,2.41c1.83,1.86,3.26,1.16,3.12-1.41ZM119.78,47c-1.57-.32-2.28,1.04-2.39,2.39l2.64.49-.25-2.88ZM83.92,51.45c-1.97,1.9,3.3,3.57,2.24.15-.32-1.03-1.64-.73-2.24-.15ZM101.55,53.73l-2.39-.97-.97,2.88,2.33.44,1.03-2.35ZM109.64,58.12l-2.33-1.04-.28,2.43,2.19.93.42-2.32ZM103.47,60.45l-2.4-.49c-.49,1.77-.24,2.26,1.2,3.36,1.05.44,1.1-2.37,1.19-2.87Z"/>
        <path d="M44.61,18.5c4.09,3.27-.37,1.39-.66,2.84l1.44,2.62-2.88.48c.79-1.51-1.08-1.75-1.94-2.62-1.8-1.82-1.37-2.57.02-4.57-2.67-.02-3.39-3.67-1.94-5.54,3.5-1.46,4.89,2.36,2.91,4.82.55.87,1.65.53,2.37,1,.35.23.44.77.68.97Z"/>
        <path d="M89.43,24.56c.87.87.79,3.86-.11,4.7-.98.92-2.49-.21-2.95,1.45l-1.58-.54c.74-1.21-.48-1.87-.58-3.08-.24-2.83,3.66-4.08,5.22-2.52Z"/>
        <path d="M36.69,18.27c1.36,1.76,3.5,4.85.43,6.3-5.08,2.38-5.02-6.4-.43-6.3Z"/>
        <path d="M20.91,9.56l-.95,5.53c-1.08.91-4.04.63-4.82,1-.97.46-1.47,2.22-3.35,1.62l6.26-6.5,1.89.27c.32-.36-.75-2.37.96-1.92Z"/>
        <path d="M24.7,15.83c-2.34.22-1.46-1.09-.09-1.87l.83-.09c1.83,1.17,6.36,3.08,3.65,5.57-2.47,2.27-5.04-.84-4.39-3.6Z"/>
        <path d="M66.98,4.28l.07,1.86,1.83.83-.93,2.59c3.22.67,2.47,5.01-1.12,3.77-2.77-.96.5-3.67.51-3.99.04-1.57-2.91-3.39-2.27-5.05h1.91Z"/>
        <circle cx="21.03" cy="19.64" r="2.74"/>
        <path d="M69.47,14.46c1.36-.78,2.85,1.02,3.16,2.19,1.57,6.02-8.32,3.46-3.16-2.19Z"/>
        <path d="M48.14,15.41c4.76-1.01,3.88,7.23-.81,4.45-2.1-1.25-1.54-3.95.81-4.45Z"/>
        <path d="M35.23,13c.1.06.86,1.88.89,2.15.32,2.98-2.46,2.06-4.17,3.53.03-1.64-1.03-3.42-.04-4.96.44-.68,2.71-1.1,3.32-.72Z"/>
        <circle cx="55.02" cy="15.75" r="2.48"/>
        <path d="M63.52,11.6c.58.6.51,1.94.61,2.75.39.36,2.41-.7,1.9.98l-6.03-.45c-1.39-2.57,1.56-5.29,3.52-3.28Z"/>
        <path d="M44.98,10.11c.78-1.24,4.65-.24,4.07,1.86-.98,3.55-5.78.86-4.07-1.86Z"/>
        <path d="M26.55,12.8c-2.52,2.61-5.56-4.16-1.09-3.73,1.8.17,2.2,2.58,1.09,3.73Z"/>
        <circle cx="74.69" cy="9.63" r="1.9"/>
        <circle cx="52.84" cy="8.84" r="1.81"/>
        <path d="M29.55,8.13c4.5-2.23,4.42,3.86,1.45,2.65-.87-.71-1.68-1.43-1.45-2.65Z"/>
        <path d="M36.81,5.79c.87-1.39,3.93.51,2.6,2.36-1.22,1.7-3.71-.59-2.6-2.36Z"/>
        <circle cx="59.31" cy="7.26" r="1.59"/>
        <path d="M54.03,21.56c.11,1.25.06.8-.72.94-1.42.26-3.1.41-4.55.49.13-2.44,3.68-1.15,5.28-1.43Z"/>
      </g>
    </g>
    <g>
      <path d="M153.87,23.48c-1.32.27-2.84-1.2-3.83.24l4.32,2.02c.11,1,.02,1.96-.37,2.9-.81,1.89-2.57.86-2.51,2.52,2.18-1.41,3.88-.42,5.75.96l-.05-2.35-2.39-.84c.61-2.41-.07-5.82,2.91-6.71,1-.3,1.87.22,2.43.02s1.04-1.26,2.24-1.55c8.16-1.93,5.09,8.88-.58,3.75l-2.64,3.83,3.62,1.42c.43.05,2.43-4.89,4.31-3.35l-.74,5.78-2.87-.96c-.11.57-.3,2.59-.58,2.8-.42.33-1.5-.35-1.34.55l3.31,1.27c.18,1.65-.65,2.98-.42,4.69.25,1.83,2.11,3.67,2.62,5.12.23.64-.28,1.33-.23,1.38.09.08.94.02,1.37.3,2.79,1.81,3.69,3.85,7.58,4.36,1.33.18,1.6-1.31,2.08,1.6l1.27-2.42c7.75.96,13.95.75,21.38-1.56.42-.13,3.98-1.82,3.74-1.06l-.95,1.45,2.86,1.68.96-2.87c-4.35-.36.69-3.07,2.17-4.8,1.05-1.23,1.33-2.72,2.48-3.47l.64-6.61,2.39.96.97-3.84-3.36.48-.96-5.76c1.67,0,2.74,1.02,3.83-.72-.72-.9-1.97-.8-2.86-1.45-3.04-2.22-.47-6.1,2.76-4.72.74.31,1.49,2.26,2.75,2.57,1.09,1.77-.61,3.23-.61,3.61,0,.46,1.3,1.08,1.57,1.68.95,2.13-.37,1.05,1.7,3.09.58.57.11,1.59,1.41,1.21.59-2.43,4.42-1.65,5.76,0,.19-3.72,2.66-3.87,5.7-2.81-.12,1.11.64,2.6.55,3.52-.07.74-1.11,1.48-.96,1.68.07.09.86-.35,1,.69.27,1.96-.72,4.01-.57,5.98-1.72.92-2.2-.52-3.31-1.38v2.88s-1.92,0-1.92,0c-.12.81.85.36,1.41.76s.49,1.52,1.91,1.18c-1.06,6.31-6.53,11.51-11,15.81,4.89.85,10.76.94,15.5,2.04,1.32.31,1.34,1.32,1.58,1.32,1.27,0,1.17-.93,3.05.27,3.82,2.42,4.1,8.91,2.05,12.55-2.8,4.98-14.01,4.14-19.03,4.49-.24-.07-.29-2.32-1.92-1.94-.72.17-.56,1.46-.87,1.78-1.25,1.32-15.64.7-18.39,1.06-2.34.31-3.56,3.29-4.28,5.32-3.16,9.03.71,17.42-.26,26.62-.24,2.27-.81,2.64-2.4,4.08l1.42.7-2.84,5.32-1.45-.26c-1.05,5.72-9.49,5.57-13.77,3.45-7.16-3.53-7.75-11.97-6.89-19.06.2-1.67,1.9-3.5,1.92-4.33,0-.33-.93-.29-1.18-.68-.44-.67.42-8.89.11-11.18-1.61-11.86-12.09-8.46-21-9.01l.48-1.43-1.21-.48-1.04,1.94c-5.79-.32-16.48.69-21.04-3.37-3.39-3.01-3.93-12.72.39-14.98,1.89-.99,9.05-2.88,11.46-3.42s6.04-1.26,8.32-1.29c1.29-.02.46.69.79,1.85l2.33.56v-2.4s2.88,0,2.88,0l-13.23-8.63,1.71-2.4-3.83-1.45-.48,1.44c-.2-1.49-2.27-2.97-1.69-4.31l1.68,1.44c0-1.84.61-4.6-1.91-4.8l-.96,1.92-.48-5.76c4.48,1.4-.36-2.66-.46-4.1-.34-5.04,3.64-2.99,4.28-3.6.14-.13.96-3.41.98-3.62.09-.92-.57-1.79-.26-2.58.36-.91,4.97-3.79,5.53-3.37-.96,1.5-1.43,2.46.48,3.36-1.22-4.17,4.68-5.38,5.55-1.93.39,1.52-.76,1.76,1.65,3.37ZM148.58,28.76l.95-5.01c-1.65-1.83-4.04.32-4.79,2.13.67.05,1.37.33,1.9.74.97.74,1.07,1.7,1.93,2.14ZM146.19,32.12c-2.48.55-3.09-1.25-4.8-2.4.89,2.06-.47,2.99-.96,4.8l1.44-2.4.48,2.88,3.22-1.81.62-1.07ZM148.57,31.18c-.4-.29-1.41.45-1.41.71,0,.4,1.92,1.32,2.34,1.97,1.05,1.63.76,5.2,2.93,6.43.52-1.81.16-2.04-.95-3.36,1.22-.26,2.18,1.89,2.88,0-3.5.32-2.72-2.71-3.46-3.74-.17-.24-1.26-.43-1.82-.84-.41-.3-.44-1.12-.5-1.17ZM230.61,33.14l-2.55-1-1.22,2.84,2.86,1.47c.21-1.15,1.39-2.02.91-3.3ZM158.54,34.2c-.1-.13-1.27-.7-1.31-.64.28,1.62-.61,2.23-1.44,3.36l3.35,1.93.97-3.36c-1.94.41-1.18-.8-1.57-1.28ZM225.38,44.6c0-2.28-.73-4.57-1.9-6.5-.57-.94-2.25-1.42-1.94-3.1-1.25,1.23-1.82,2.33-3.83,2.41.32,1.02,1.97-.11,3,.07,2.45.43,4.07,4.35,2.28,6.16l2.39.97ZM145.32,39.22c-.32-.18-.34-1.35-1.05-1.34-1.07,2.1.39,3.41,1.91,4.8l1.45-3.35c-.7-.09-1.72.24-2.31-.11ZM162.99,41.25l-3.84-.96.96,4.32,1.1-.61,1.77-2.75ZM214.35,46.05c-1.55.25-2.57-.82-3.83-1.44l-.97,2.87,2.87,1.45,1.93-2.88ZM221.07,49.89l-1.91-1.45-.96,3.83,2.88.48-.98-2.15.98-.72ZM180.27,56.12l-1.91.25-1.93,2.15c1.42-.2,2.28.11,3.35.96l.48-3.36ZM183.14,62.85l-2.87-1.93-.28,3.39,2.15.9,1.01-2.36ZM150.99,73.41l-2.11-.41-1.21,1.61,2.36,1.67.96-2.88Z"/>
      <g>
        <path d="M220.19,14.76l.87.09v.95s-.95.48-.95.48l3.59,1.92c1.17-1.64,1.06-3.58,3.59-3.83.19,1.44,2.27,2.46,1.88,3.97-.62,2.38-3.61,1.14-3.77,1.29-.06.06,0,.95-.28,1.39-1.22,1.93-1.53.35-2.45.19-2-.35-4.39,1.81-4.84-2.71l1.79-1.99c-.53-1.23-4-.86-3.37-4.31.5-2.71,6.02-1.06,3.94,2.55Z"/>
        <path d="M165.41,15.83c-.03,2.96-2.79,4.4-5.07,2.38-1.57-3.89,3.16-4.89,5.99-3.85.37-4.63,6.21-1.76,4.29,1.13-1.6,2.41-3.1.02-5.21.33Z"/>
        <path d="M232.55,24.39c-2.68.78-4.46,3.97-7.16,3.89-.4-1.23,1.9-1.66,1.91-2.16,0-.1-.88-.85-1.06-1.33-2.04-5.42,6.01-5.48,6.31-.41Z"/>
        <circle cx="222.44" cy="25.59" r="3.01"/>
        <path d="M147.47,12.11c2.18-.1,6.19,2.77,3.8,4.7-3.76,2.27-9.25-4.46-3.8-4.7Z"/>
        <circle cx="155.59" cy="18.8" r="2.67"/>
        <path d="M207.63,18.2c2.94-.56,3.39,2.07,2.39,4.32-2.37-1.27-2.08-2.19-2.39-4.32-.38.07-.79.92-1.47.76-.18-.04-3.11-1.68-3.22-1.83-1.67-2.35.71-5.31,3.5-2.78,1.45,1.31.96,2.32,1.19,3.85Z"/>
        <path d="M212.6,12.25c1.47,1.3,3.26,2.73.91,4.52-3.55,2.7-5.71-3.24-1.32-5.29.4-.07.12.51.41.77Z"/>
        <path d="M163.33,8.49c-.05.09-.61.08-.66.23-.26.75-.09,1.53-.41,2.26-1.05,2.42-4.37,1.24-3.5-1.56.19-.61,1.97-3.21,2.56-3.26,1.2-.12,2.65,1.16,2.02,2.33Z"/>
        <circle cx="153.92" cy="11.82" r="2.24"/>
        <path d="M142.34,13.89c.56,1.51,1.51,2.5.65,4.21-.79,1.79-4.16.83-3.95-.53.05-.33,2.59-4.18,3.3-3.67Z"/>
        <path d="M184.58,10.51c-1.38-.07-1.21,1.89-2.62,1.92-2.91.07-3.02-4.37-.04-4.33l2.66,2.41Z"/>
        <path d="M174.04,14.84c-.9-1.19-1.41-3.95.34-4.3,4.63-.93,3.73,3.74-.34,4.3Z"/>
        <path d="M195.95,10.6c4.71-1.64,4.97,6.45-1.08,2.35-.5-.63.44-2.12,1.08-2.35Z"/>
        <path d="M138.87,26.72c-.26.27-2.56,1.28-2.75,1.08.14-.92.9-6.23,1.68-6.23,1.69.9,2.4,3.78,1.08,5.15Z"/>
        <circle cx="203.17" cy="10.42" r="2.05"/>
        <path d="M210.87,6.8c1.67,1.65-1.18,3.52-2.27,4.68-.15-1.72-1.67-2.7-.52-4.48.53-.82,2.13-.87,2.79-.2Z"/>
        <path d="M218.12,8.53c-2.68,1.33-4.28-1.12-2.85-3.57,2.52-.9,3.35,1.36,2.85,3.57Z"/>
        <circle cx="188.31" cy="8.07" r="1.94"/>
        <circle cx="166.93" cy="8.22" r="1.93"/>
        <path d="M191.31,7.64l1.4-.51.31-1.95c3.19-2.43,5.58,3.93-1.71,2.45Z"/>
        <circle cx="172.88" cy="5.58" r="1.67"/>
        <circle cx="158" cy="3.81" r="1.66"/>
        <path d="M150.54,7.13c-.85-1.31,2.97-3.52,3.33-2.12.65,2.57-2.66,3.14-3.33,2.12Z"/>
        <path d="M178.22,8.48c-.71.69-2.79.44-2.77-.16.29-3.31,5.07-2.07,2.77.16Z"/>
        <circle cx="201.42" cy="3.95" r="1.42"/>
        <path d="M170.67,18.21l-1.68,3.83c-1.46-1.88-1.16-5.31,1.68-3.83Z"/>
        <circle cx="165.14" cy="1.39" r="1.39"/>
        <circle cx="179.86" cy="3.73" r="1.37"/>
      </g>
    </g>
  </g>
  <g>
    <path d="M828.22,91.31h.83c1.46-4.57,7.67-.72,4.7,2.79-.44.52-1.33.38-1.29,1.04l2.34,1.7,2.34-1.7c.04-.66-.85-.52-1.29-1.04-2.39-2.83,1.29-6.47,4.08-4.07.66.56.31,1.61,1.45,1.28,2.42-4.54,1.96,1.18,1.71,3.4-1.02.13-1.58-.87-1.71-1.7h-.83c-.05,1.16-.89,1.38-1.71,1.91l1.98,1.45,2.27-1.03c-2.38,6.25-8.68,8.65-14.88,6.59l.85-1.27c-.8-.27-1.07.87-1.69.65-1.19-.43-4.82-3.99-4.08-5.34.39-.7,1.49-.53,1.52-1.26-1.67,0-1.26-2.02-2.55-1.71l-.42.85v-3.19s.42.63.42.63h.84c.66-2.82,4.48-2.78,5.12,0ZM829.06,93.02c-.87-.7-1.17,1.93-2.54,1.71l1.97,1.66,2.27-1.25c.01-.61-.79-.57-1.3-1.04-.32-.3-.34-1.02-.4-1.07Z"/>
    <circle cx="838" cy="86.21" r="2.09"/>
    <circle cx="831.62" cy="86.21" r="2.09"/>
    <path d="M827.25,84.62c.3.31.49.98.51,1.41.17,4.32-7.79,1.9-1.82-1.86.35-.07,1.07.2,1.32.45Z"/>
    <path d="M736.35,34.32l.21-4.25c1.81,1.43,1.85,3.06-.21,4.25Z"/>
    <g>
      <g>
        <path d="M778.03,59.42l2.97,2.13,2.13-2.55c-1.86.53-2.06-2.04-2.34-2.13-.92-.32-.55,1.18-1.23,1.74-.5.41-.91.45-1.53.39v-5.1c1.43-.22,2.16.79,2.13,2.12l.84-.3c.35-2.94,5.15-2.78,5.11.3l.84-.3c2.39-5.65,8.92,1.4,2.98,3.48,2.87,1.55,3.67,4.32.43,5.95,2.56,1.24,3.12,4.62.43,5.95l2.12,2.34,1.71-2.34c-2.72-1.36-2.11-4.73.43-5.95-3.27-1.65-2.42-4.42.43-5.95-5.11-1.24-1.03-7.95,2.37-4.91.69.61.34,2.04,1.24,1.73.37-.13.19-1.01.6-1.52,1.04-1.29,3.53-1.09,4.52.23.57,1.11-.03,4.79-1.93,4.26l1.23.89c-.63,2.38-1.03,4.95-1.23,7.4-.65,8.16.33,17.18-.48,25.04-.89,8.58-8.39,11.61-16.12,9.42-1.3-.37-4.14-2.31-4.38-2.29-.64.06-1.6,1.14-2.41,1.43-14.56,5.22-28.9-.18-31.36-16.28-1.51-9.91-.19-21.12-.11-31.14,3.79.69,3.66,3.69,1.27,6.16l1.92,2.35,1.92-2.35c.02-.93-1.36-1.33-1.62-2.21-.7-2.32,1.54-4.58,3.87-3.87.78.24,1.33,1.5,1.85,1.59.89.16,1.75-2.69,4.41-1.45.55.25,1.06,1.37,1.55,1.45.69.12,3.49-3.93,5.96,0l1.85-1.25v5.1s-1.85-1.24-1.85-1.24l-1.56,1.88,1.5,1.5,1.91-1.28v5.1s-1.91-1.28-1.91-1.28l-1.49,1.29,1.55,1.66,1.86-1.25v10.85c0,2.66,2.07,4.36,3.43,5.95.31.36.01,1.11.37,1.3.63.33,2.76-.74,3.85.62v-24.67ZM786.95,56.86l-.84.3c-.06,1.32-.85,1.87-2.13,1.84.91.37,2,2.44,2.13,2.54.64.5,1.83-2.03,2.97-2.34-1.35-.43-2.2-.69-2.13-2.34ZM799.29,56.86l-.84.3c-.06,1.32-.85,1.87-2.13,1.84.91.37,2,2.44,2.13,2.54.64.5,1.83-2.03,2.97-2.34-1.35-.43-2.2-.69-2.13-2.34ZM758.43,59.81c.4-.56-1.07-1.76-1.52-2.06l-1.84,1.47,1.28,1.89,2.09-1.3ZM764.39,59.81c.4-.56-1.07-1.76-1.52-2.06l-1.84,1.47,1.28,1.89,2.09-1.3ZM752.51,64.96c-1.53.06-1.16-1.7-2.12-2.13l-1.24,2.7,1.45,1.54,1.91-2.11ZM782.7,64.95c-1.13-.02-1.43-.9-1.91-1.71l-1.93,2.33c2.36,2.42,1.68,1.3,3.84-.63ZM786.95,63.25c-.79-.7-1.4,2.12-2.54,1.7l1.71,2.12.88-.28,1.67-1.63c-1.19-.02-1.36-1.6-1.71-1.91ZM799.28,63.25c-.79-.7-1.4,2.12-2.54,1.7l1.71,2.12.88-.28,1.67-1.63c-1.19-.02-1.36-1.6-1.71-1.91ZM757.18,63.68c-.79-.68-1.16,1.59-2.12,1.28l1.55,1.66,1.85-1.46c-.89-.01-1.06-1.29-1.28-1.48ZM763.13,63.68c-.79-.68-1.16,1.59-2.12,1.28l1.55,1.66,1.85-1.46c-.89-.01-1.06-1.29-1.28-1.48ZM750.8,73.02l1.26-1.91-1.47-1.48-1.47,1.48,1.68,1.91ZM780.99,69.63c-.79-.68-1.16,1.59-2.12,1.28l1.55,1.66,1.85-1.46c-.89-.01-1.06-1.29-1.28-1.48ZM786.95,69.63c-.79-.68-1.16,1.59-2.12,1.28l1.55,1.66,1.85-1.46c-.89-.01-1.06-1.29-1.28-1.48ZM799.28,69.63c-.79-.68-1.16,1.59-2.12,1.28l1.55,1.66,1.85-1.46c-.89-.01-1.06-1.29-1.28-1.48ZM792.49,75.16l-1.26,1.91,1.47,1.48,1.47-1.48-1.68-1.91Z"/>
        <path d="M756.34,49.21h.83c.66-2.82,4.48-2.78,5.12,0h.83c1.4-3.61,4.26-2.03,5.96.43-.02-1.04.5-2.22,1.71-2.12l-.43,5.1-1.48-2.12c-1.55,2.87-4.31,3.68-5.96.42h-.63c-.65,2.81-4.48,2.8-5.12,0h-.63c-.92,2-2.89,2.9-4.69,1.28-3.52-3.16,2.87-7.85,4.48-2.99Z"/>
        <circle cx="753.79" cy="44.1" r="2.71"/>
        <circle cx="759.74" cy="44.1" r="2.71"/>
        <circle cx="765.7" cy="44.1" r="2.71"/>
        <circle cx="801.84" cy="50.06" r="2.63"/>
        <circle cx="795.89" cy="50.06" r="2.63"/>
        <circle cx="789.51" cy="50.06" r="2.63"/>
        <circle cx="783.56" cy="50.06" r="2.63"/>
        <circle cx="771.65" cy="38.15" r="2.63"/>
        <circle cx="765.69" cy="38.15" r="2.63"/>
        <circle cx="759.74" cy="38.15" r="2.63"/>
        <circle cx="753.78" cy="38.15" r="2.63"/>
        <circle cx="747.4" cy="38.15" r="2.63"/>
        <path d="M740.48,35.69c4.51-1.34,4.73,5.95.54,4.83-2.93-.78-2.77-4.17-.54-4.83Z"/>
        <circle cx="783.56" cy="44.1" r="2.36"/>
        <circle cx="789.51" cy="44.1" r="2.36"/>
        <circle cx="795.89" cy="44.1" r="2.36"/>
        <circle cx="801.84" cy="44.1" r="2.36"/>
        <circle cx="807.8" cy="44.1" r="2.36"/>
        <circle cx="747.4" cy="32.19" r="2.36"/>
        <circle cx="753.78" cy="32.19" r="2.36"/>
        <circle cx="759.74" cy="32.19" r="2.36"/>
        <circle cx="765.69" cy="32.19" r="2.36"/>
        <circle cx="777.6" cy="38.15" r="2.36"/>
        <circle cx="771.65" cy="32.19" r="2.36"/>
        <circle cx="741.45" cy="32.19" r="2.36"/>
        <circle cx="747.4" cy="26.24" r="2.26"/>
        <circle cx="753.78" cy="26.24" r="2.26"/>
        <circle cx="759.74" cy="26.24" r="2.26"/>
        <circle cx="765.69" cy="26.24" r="2.26"/>
        <circle cx="771.65" cy="26.24" r="2.26"/>
        <path d="M741.77,24.18c.35-.05.65-.09.95.13l.64.66c.59,8.14-8.31.15-1.59-.79Z"/>
        <circle cx="777.6" cy="32.19" r="2.17"/>
        <path d="M773.77,41.98c.51.71-3.47,3.02-2.98,4.67-3.78-2.04-1.26-6.76,2.98-4.67Z"/>
        <circle cx="819.71" cy="38.15" r="2.09"/>
        <circle cx="813.75" cy="38.15" r="2.09"/>
        <path d="M749.43,42.08c1.29,1.29.55,5.23-2.02,4.58.22-1.88-.2-3.28-1.69-4.47.6-1.02,3.07-.76,3.72-.11Z"/>
        <circle cx="807.8" cy="38.15" r="2.09"/>
        <circle cx="801.84" cy="38.15" r="2.09"/>
        <circle cx="795.89" cy="38.15" r="2.09"/>
        <circle cx="789.51" cy="38.15" r="2.09"/>
        <circle cx="783.55" cy="38.15" r="2.09"/>
        <circle cx="777.6" cy="26.24" r="2.09"/>
        <path d="M747.4,53.04v-5.95c3.9.66,3.92,5.28,0,5.95Z"/>
        <circle cx="771.65" cy="20.28" r="1.98"/>
        <circle cx="765.69" cy="20.28" r="1.98"/>
        <circle cx="759.74" cy="20.28" r="1.98"/>
        <circle cx="753.78" cy="20.28" r="1.98"/>
        <path d="M825.12,36.09c1.01-.27,1.65.17,2.19,1l-2.66,2.74c-1.78-.75-1.2-3.29.47-3.74Z"/>
        <circle cx="825.66" cy="32.2" r="1.72"/>
        <circle cx="813.75" cy="32.2" r="1.72"/>
        <circle cx="759.74" cy="14.33" r="1.72"/>
        <circle cx="819.71" cy="32.2" r="1.72"/>
        <circle cx="765.69" cy="14.33" r="1.72"/>
        <circle cx="807.8" cy="32.2" r="1.72"/>
        <circle cx="801.84" cy="32.2" r="1.72"/>
        <circle cx="795.89" cy="32.2" r="1.72"/>
        <circle cx="753.78" cy="14.33" r="1.72"/>
        <circle cx="783.56" cy="32.2" r="1.72"/>
        <circle cx="789.51" cy="32.2" r="1.72"/>
        <path d="M808.65,47.51l-2.34,4.67c-2.42-2.02-.69-5.23,2.34-4.67Z"/>
        <path d="M778.03,52.61c.06-1.33-.1-2.71,0-4.04.05-.63-.33-1.23.63-1.05,2.22,1.42,2.11,4.51-.63,5.1Z"/>
        <path d="M778.03,46.66l.21-5.1c2.62,1.25,2.55,4.12-.21,5.1Z"/>
        <path d="M746.98,22.41c-.25-.26.56-2.4.74-2.88.2-.54-.19-1.14.74-.94,1.89,1.6.66,3.63-1.48,3.82Z"/>
        <circle cx="807.8" cy="26.24" r="1.36"/>
        <circle cx="795.89" cy="26.24" r="1.36"/>
        <circle cx="783.56" cy="26.24" r="1.36"/>
        <path d="M815.45,42.82l-3.82,1.71c-.53-2.45,2.44-3.62,3.82-1.71Z"/>
      </g>
      <g>
        <g>
          <path d="M689.99,61.54h.83c.64-2.78,4.46-2.82,5.12,0h.83c.64-2.78,4.46-2.82,5.12,0h.83c2.31-5.34,8.77.93,3.41,3.62,2.56,1.24,3.12,4.62.43,5.95l2.12,2.34,1.71-2.34c-2.72-1.36-2.11-4.73.43-5.95-3.69-1.71-2.09-5.97,1.7-5.74-.29,3.22.45,6.38.44,9.59-.02,6.7-.09,22.16-2.78,27.84-2.89,6.08-9.95,7.67-15.94,5.31-9.14-3.59-6.33-14.86-6.81-22.53-.19-3.01-2.16-11.32-1.61-13.51.11-.43.91-.97.77-1.15-1.86.2-1.57-4.2-.86-4.91,1.32-1.33,4.06-.39,4.27,1.49ZM690.83,63.25c-.79-.7-1.4,2.12-2.54,1.7l1.71,2.12.88-.28,1.67-1.63c-1.19-.02-1.36-1.6-1.71-1.91ZM696.78,63.25c-.79-.7-1.4,2.12-2.54,1.7l1.71,2.12.88-.28,1.67-1.63c-1.19-.02-1.36-1.6-1.71-1.91ZM702.74,63.25c-.79-.7-1.4,2.12-2.54,1.7l1.71,2.12.88-.28,1.67-1.63c-1.19-.02-1.36-1.6-1.71-1.91ZM690.83,69.63c-.79-.68-1.16,1.59-2.12,1.28l1.55,1.66,1.85-1.46c-.89-.01-1.06-1.29-1.28-1.48ZM696.78,69.63c-.79-.68-1.16,1.59-2.12,1.28l1.55,1.66,1.85-1.46c-.89-.01-1.06-1.29-1.28-1.48ZM702.74,69.63c-.79-.68-1.16,1.59-2.12,1.28l1.55,1.66,1.85-1.46c-.89-.01-1.06-1.29-1.28-1.48ZM708.69,78.98l1.25-1.91-1.66-1.91-1.25,1.91,1.66,1.91Z"/>
          <path d="M515.61,61.54h.83c.84-2.93,4.22-2.67,5.33,0h.63c.84-2.94,4.22-2.68,5.33,0h.63c.83-2.93,4.21-2.69,5.33,0h.63c2.23-5.43,8.86,1.14,3.41,3.41,2.2,1.39,3.44,4.85.42,5.96l.85,1.26c-1.6-.23-2.95-.51-4.23-1.53-.54-.43-.18-1.36-1.29-1.02l-.97,1.2c-5.21-1.54-11.09-1.54-15.63-4.82l1.27-1.06c-.99-.07-1.62-.74-1.71-1.7l-.88.27-1.02,1.39-3.85-2.93v-1.29c1.54-1.9,4.32-1.6,4.91.86ZM522.4,63.25c-.79-.7-1.4,2.12-2.54,1.7l1.71,2.12.88-.28,1.67-1.63c-1.19-.02-1.36-1.6-1.71-1.91ZM528.36,63.25c-.79-.7-1.4,2.12-2.54,1.7l1.71,2.12.88-.28,1.67-1.63c-1.19-.02-1.36-1.6-1.71-1.91ZM534.31,63.25c-.79-.7-1.4,2.12-2.54,1.7l1.71,2.12.88-.28,1.67-1.63c-1.19-.02-1.36-1.6-1.71-1.91Z"/>
          <circle cx="699.35" cy="56.01" r="2.71"/>
          <circle cx="693.39" cy="56.01" r="2.71"/>
          <circle cx="687.44" cy="56.01" r="2.71"/>
          <circle cx="657.24" cy="56.01" r="2.71"/>
          <circle cx="651.29" cy="56.01" r="2.71"/>
          <circle cx="645.33" cy="56.01" r="2.71"/>
          <circle cx="639.38" cy="56.01" r="2.71"/>
          <circle cx="633.42" cy="56.01" r="2.71"/>
          <circle cx="627.47" cy="56.01" r="2.71"/>
          <circle cx="621.09" cy="56.01" r="2.71"/>
          <circle cx="615.13" cy="56.01" r="2.71"/>
          <circle cx="578.98" cy="56.01" r="2.71"/>
          <circle cx="573.03" cy="56.01" r="2.71"/>
          <circle cx="567.07" cy="56.01" r="2.71"/>
          <circle cx="543.26" cy="56.01" r="2.71"/>
          <circle cx="536.88" cy="56.01" r="2.71"/>
          <circle cx="530.92" cy="56.01" r="2.71"/>
          <circle cx="524.97" cy="56.01" r="2.71"/>
          <circle cx="705.3" cy="56.01" r="2.71"/>
          <circle cx="519.01" cy="56.01" r="2.71"/>
          <circle cx="513.06" cy="56.01" r="2.71"/>
          <path d="M587.38,53.99c.92.9.06,2.91.03,4.07-3.58,1.6-5.75-.49-4.08-4.07.73-.73,3.31-.71,4.05,0Z"/>
          <path d="M551.23,58.04c-1.46,1.46-4.67.72-4.6-2.23.13-4.98,7.77-.94,4.6,2.23Z"/>
          <path d="M665.23,53.99c.77.72-.2,3.52-.74,4.38-4.3,1.85-5.54-4.82-1.5-4.93.65-.02,1.77.11,2.24.55Z"/>
          <circle cx="615.13" cy="50.06" r="2.54"/>
          <circle cx="585.36" cy="50.06" r="2.54"/>
          <circle cx="578.98" cy="50.06" r="2.54"/>
          <circle cx="573.02" cy="50.06" r="2.54"/>
          <circle cx="705.3" cy="50.06" r="2.54"/>
          <circle cx="530.92" cy="50.06" r="2.54"/>
          <circle cx="524.96" cy="50.06" r="2.54"/>
          <circle cx="519.01" cy="50.06" r="2.54"/>
          <circle cx="513.05" cy="50.06" r="2.54"/>
          <circle cx="507.1" cy="50.06" r="2.54"/>
          <circle cx="621.08" cy="50.06" r="2.54"/>
          <circle cx="627.46" cy="50.06" r="2.54"/>
          <circle cx="633.42" cy="50.06" r="2.54"/>
          <circle cx="639.37" cy="50.06" r="2.54"/>
          <circle cx="699.34" cy="50.06" r="2.54"/>
          <circle cx="693.39" cy="50.06" r="2.54"/>
          <circle cx="687.43" cy="50.06" r="2.54"/>
          <circle cx="663.19" cy="50.06" r="2.54"/>
          <circle cx="657.24" cy="50.06" r="2.54"/>
          <circle cx="651.28" cy="50.06" r="2.54"/>
          <circle cx="645.33" cy="50.06" r="2.54"/>
          <circle cx="567.11" cy="50.06" r="2.52"/>
          <path d="M509.13,53.99c1.07,1.07.63,4.92-1.33,4.5-.78-.17-3.12-4.18-2.82-4.6,1.11-.37,3.25-.81,4.15.1Z"/>
          <path d="M539.41,50.08c-1.12,5.74-8.46.74-3.39-2.57.21,1.62,2.04,2.17,3.39,2.57Z"/>
          <path d="M557.67,50.87l-4.36.4c-1.33-.44-.63-2.62.41-3.29,2.13-1.39,4.39.53,3.96,2.89Z"/>
          <circle cx="555.16" cy="44.11" r="2.26"/>
          <circle cx="585.36" cy="44.11" r="2.26"/>
          <circle cx="705.3" cy="44.11" r="2.26"/>
          <circle cx="699.34" cy="44.11" r="2.26"/>
          <circle cx="693.39" cy="44.11" r="2.26"/>
          <circle cx="687.43" cy="44.11" r="2.26"/>
          <circle cx="669.57" cy="44.11" r="2.26"/>
          <circle cx="663.19" cy="44.11" r="2.26"/>
          <circle cx="657.24" cy="44.11" r="2.26"/>
          <circle cx="651.28" cy="44.11" r="2.26"/>
          <circle cx="645.33" cy="44.11" r="2.26"/>
          <circle cx="639.37" cy="44.11" r="2.26"/>
          <circle cx="633.42" cy="44.11" r="2.26"/>
          <circle cx="627.46" cy="44.11" r="2.26"/>
          <circle cx="621.08" cy="44.11" r="2.26"/>
          <circle cx="615.13" cy="44.11" r="2.26"/>
          <circle cx="561.11" cy="44.11" r="2.26"/>
          <circle cx="578.98" cy="44.11" r="2.26"/>
          <circle cx="573.02" cy="44.11" r="2.26"/>
          <circle cx="507.1" cy="44.11" r="2.26"/>
          <circle cx="549.21" cy="44.11" r="2.26"/>
          <circle cx="543.25" cy="44.11" r="2.26"/>
          <circle cx="513.05" cy="44.11" r="2.26"/>
          <circle cx="530.92" cy="44.11" r="2.26"/>
          <circle cx="524.96" cy="44.11" r="2.26"/>
          <circle cx="519.01" cy="44.11" r="2.26"/>
          <circle cx="536.85" cy="44.06" r="2.23"/>
          <path d="M712.53,53.46v5.11c-4.73.89-4.69-6.01,0-5.11Z"/>
          <path d="M566.64,41.98l.21,1.28.21-1.28c3.46.02,2.77,5.3-.98,4.17-1.82-.55-1.59-4.19.55-4.17Z"/>
          <path d="M680.5,42.06c4.15-1.25,4.03,4.88.88,4.09-2.13-.53-2.98-3.46-.88-4.09Z"/>
          <circle cx="507.1" cy="38.15" r="2.09"/>
          <circle cx="513.05" cy="38.15" r="2.09"/>
          <circle cx="519.01" cy="38.15" r="2.09"/>
          <circle cx="705.3" cy="38.15" r="2.09"/>
          <circle cx="699.34" cy="38.15" r="2.09"/>
          <circle cx="693.39" cy="38.15" r="2.09"/>
          <circle cx="524.96" cy="38.15" r="2.09"/>
          <circle cx="687.43" cy="38.15" r="2.09"/>
          <circle cx="681.48" cy="38.15" r="2.09"/>
          <circle cx="675.52" cy="38.15" r="2.09"/>
          <circle cx="669.57" cy="38.15" r="2.09"/>
          <circle cx="663.19" cy="38.15" r="2.09"/>
          <circle cx="657.24" cy="38.15" r="2.09"/>
          <circle cx="651.28" cy="38.15" r="2.09"/>
          <circle cx="645.33" cy="38.15" r="2.09"/>
          <circle cx="639.37" cy="38.15" r="2.09"/>
          <circle cx="633.42" cy="38.15" r="2.09"/>
          <circle cx="627.46" cy="38.15" r="2.09"/>
          <circle cx="621.08" cy="38.15" r="2.09"/>
          <circle cx="615.13" cy="38.15" r="2.09"/>
          <circle cx="530.92" cy="38.15" r="2.09"/>
          <circle cx="536.87" cy="38.15" r="2.09"/>
          <circle cx="609.18" cy="38.15" r="2.09"/>
          <circle cx="543.25" cy="38.15" r="2.09"/>
          <circle cx="591.31" cy="38.15" r="2.09"/>
          <circle cx="585.36" cy="38.15" r="2.09"/>
          <circle cx="578.98" cy="38.15" r="2.09"/>
          <circle cx="573.02" cy="38.15" r="2.09"/>
          <circle cx="561.11" cy="38.15" r="2.09"/>
          <circle cx="555.16" cy="38.15" r="2.09"/>
          <circle cx="549.21" cy="38.15" r="2.09"/>
          <circle cx="597.26" cy="38.1" r="2.06"/>
          <path d="M590.34,42.06c1.19-.36,2.4-.11,3.06.98l-2.71,3.22c-1.77.02-2.23-3.63-.35-4.19Z"/>
          <path d="M711.67,47.51l.43,5.1c-3.67.05-4.07-4.6-.43-5.1Z"/>
          <path d="M601.09,39c-.59-2.9,3.43-4.15,4.19-1.4s-2.6,1.31-4.19,1.4Z"/>
          <path d="M551.76,50.91l-4.42-1.24c-2.12-1.68,5.17-4.04,4.42,1.24Z"/>
          <path d="M563.24,49.63l-4.67,1.28c-.62-3.45,4.35-4.96,4.67-1.28Z"/>
          <path d="M608.75,46.23l-.43-4.25c3.86-.81,4.25,4.61.43,4.25Z"/>
          <path d="M609.61,52.61l-.85-5.1c3.43-.02,4.11,3.98.85,5.1Z"/>
          <circle cx="621.08" cy="32.2" r="1.72"/>
          <circle cx="615.13" cy="32.2" r="1.72"/>
          <circle cx="609.18" cy="32.2" r="1.72"/>
          <circle cx="603.22" cy="32.2" r="1.72"/>
          <circle cx="597.27" cy="32.2" r="1.72"/>
          <circle cx="591.31" cy="32.2" r="1.72"/>
          <circle cx="627.46" cy="32.2" r="1.72"/>
          <circle cx="585.36" cy="32.2" r="1.72"/>
          <circle cx="578.98" cy="32.2" r="1.72"/>
          <circle cx="561.12" cy="32.2" r="1.72"/>
          <circle cx="555.16" cy="32.2" r="1.72"/>
          <circle cx="549.21" cy="32.2" r="1.72"/>
          <circle cx="543.25" cy="32.2" r="1.72"/>
          <circle cx="536.87" cy="32.2" r="1.72"/>
          <circle cx="530.92" cy="32.2" r="1.72"/>
          <circle cx="524.96" cy="32.2" r="1.72"/>
          <circle cx="519.01" cy="32.2" r="1.72"/>
          <circle cx="513.05" cy="32.2" r="1.72"/>
          <circle cx="645.33" cy="32.2" r="1.72"/>
          <circle cx="651.28" cy="32.2" r="1.72"/>
          <circle cx="657.24" cy="32.2" r="1.72"/>
          <circle cx="663.19" cy="32.2" r="1.72"/>
          <circle cx="669.57" cy="32.2" r="1.72"/>
          <circle cx="675.53" cy="32.2" r="1.72"/>
          <circle cx="681.48" cy="32.2" r="1.72"/>
          <circle cx="687.43" cy="32.2" r="1.72"/>
          <circle cx="693.39" cy="32.2" r="1.72"/>
          <circle cx="699.34" cy="32.2" r="1.72"/>
          <path d="M557.29,57.3l-.52.95c-2.81.94-4.54,0-4.15-3.09l4.67,2.13Z"/>
          <path d="M677.65,44.1l-4.25.43c-.59-3.29,4.35-3.64,4.25-.43Z"/>
          <path d="M704.71,30.52c.83-.14,3.42,2.69,1.13,3.32s-3.18-2.28-1.13-3.32Z"/>
          <path d="M632.78,30.55l2.32,1.9c-1.33,3.34-5.23.19-2.32-1.9Z"/>
          <path d="M711.25,41.98l.43,4.25c-2.72.32-3.03-3.97-.43-4.25Z"/>
          <path d="M611.19,54c.92,1.25.51,2.78.11,4.14-1.03-.55-1.25-2.97-1.28-4.03s.93-.44,1.17-.1Z"/>
          <path d="M638.95,33.9c.11-.4.05-3.78,1.05-3.4,1.85,1.24,1.22,3.53-1.05,3.4Z"/>
          <path d="M544.95,51.77c-1.12,1.8-3.61.74-4.25-.85l4.25.85Z"/>
        </g>
        <g>
          <path d="M467.55,55.59l.84-.3c.08-2.14,3.09-2.7,4.5-1.43.66.59.46,1.6.82,1.73.9.31.55-1.11,1.24-1.73,1.51-1.35,4.67-.63,4.5,1.73l.84-.3c.35-2.94,5.15-2.78,5.11.3l.84-.3c.35-2.94,5.15-2.79,5.11.3l.84-.3c.52-3.05,4.88-2.68,5.35.27.55,3.5-4.71,4.66-5.35,1.17l-.84-.3c.07,1.64-.78,1.9-2.13,2.34l2.76,2.76c2.73-5.26,8.88.87,3.61,3.62,2.54,1.23,3.15,4.6.43,5.95l1.71,2.34,2.12-2.34c-2.7-1.34-2.13-4.71.43-5.95-5.01-1.78.34-7.68,1.94-5.34.45.66.06,12.76.17,14.71.1,1.79.56,3.93.87,5.72l1.93-2.98c-.79-1.22-.19-2.01.83-2.97,1.76-1.67,6.11-2.85,8.49-2.54.6.08,1.04.71,1.38.76.51.08.9-.66,1.53-.68,5.04-.15,10.06,9.85,16.06,11.6.74.21,1.26-.24,1.84-.16,3.89.51,6.48.74,10.25-.91,0,2.15,2.11,1.43.82-.42,5.24-4.57-.74-9.03-5.71-9.36l1.28-1.69c-3.01-1.11-1.77-4.57.42-5.96-5.35-2.32.94-8.76,3.62-3.41h.63c.84-2.94,4.22-2.68,5.33,0h.63c.84-2.94,4.22-2.68,5.33,0h.63c1.52-4.49,3.8.35,5.69.03,1.39-2.8,4.22-2.91,5.59-.03h.63c.83-2.93,4.21-2.69,5.33,0h.63c2.32-5.35,8.76.93,3.41,3.61,2.54,1.23,3.15,4.6.43,5.95l1.91,2.35,1.91-2.35c-2.72-1.36-2.11-4.73.43-5.95-4.51-1.61-.65-7.5,2.31-5.36.36.26.8,5.46-.6,5.36,1.81.95,3.03,5.14.43,5.95.99,1.16,1.4,1.73,2.95,1.07.23,1.1.88,2.07,1.55,2.93,8.21,10.46,16.08-1.68,18.88-9.55,1.26-.46,1.69,2.15,2.55,1.5.11-.08.73-1.75,1.71-1.91-.83-.51-1.65-.76-1.71-1.91l-2.54,1.69.85-4.67.85,1.27h.83c.66-2.82,4.48-2.78,5.12,0h.63c2.74-5.26,8.89.87,3.62,3.62,2.56,1.24,3.12,4.62.43,5.95l1.91,2.35,1.91-2.35c-2.72-1.36-2.11-4.73.43-5.95-5.35-2.68,1.1-8.96,3.41-3.62h.63c1.12-2.69,4.5-2.92,5.33,0h.63c1.11-2.67,4.49-2.93,5.33,0h.63c1.11-2.67,4.49-2.93,5.33,0h.63c1.11-2.67,4.49-2.93,5.33,0h.63c1.11-2.67,4.49-2.93,5.33,0h.63c.41-1.64,3.98-3.43,3.78-.94-.21,2.61-1.26,5.59-1.45,8.37-.54,7.98,2.06,24.92-3.2,30.83-1.64,1.84-4.36,2.81-6.76,3.02-9.76.85-14.03-4.34-13.89-13.79l-.79-3.66c-1.53,3.27-3.98,6.41-6.59,8.95-2.34,2.28-6.23,4.88-9.89,6.26-9.31,3.53-18.32,3.26-27.85.83-9.32-2.37-19.55-8.86-24.12-17.48l-.87-.27c-1.78,7.18-8.56,12.52-15.2,15.21-14.14,5.73-33.2,5.07-44.34-6.28.29,8.49-9.56,10.66-16.27,9.25-5.4-1.13-7.94-4.88-13.95-3.52-2.7.61-5.58,2.01-8.4,2.65-10.03,2.3-23.1,1.43-31.14-5.61l-4.24-4.89c-1.01,2.69.07,5.45.01,7.85-.27,12.05-5.7,21.64-18.52,22.77-7.95.7-13.02-1.09-12.11-9.98.92-9,9.79-3.94,10.62-13.2.46-5.07-.34-11.28-.81-16.17-.19-1.94.78-4.35.74-4.58-.06-.35-.68-.78-.76-1.38-.26-1.96-.2-3.48,1.26-4.87-1.77.24-1.56-3.87-1.07-4.69.69-1.16,3.43-1.07,4.47-.19.38.32.45,1.67,1.27,1.04.59-.45.16-1.83,2.76-1.72,1.95.08,2.55,2.22,3.19,1.72.59-.45.16-1.83,2.76-1.72,1.95.08,2.55,2.22,3.19,1.72.59-.45.16-1.83,2.76-1.72,1.95.08,2.55,2.22,3.19,1.72.59-.45.16-1.83,2.76-1.72,2.21.09,2.15,1.91,2.98,1.73.65-1.79,3.14-2.27,4.66-1.24.72.49.41,1.49,1.3,1.24,3.02-4.79,8.81,1.2,4.05,3.83-.19.26,1.92,1.74,1.96,2.75s-1.44,3.22-1.43,3.42c.02.5,3.22,4.29,4.01,4.82,3.87,2.59,11.25,1.89,15.32-.28,1.93-1.03,3.33-2.59,4.81-4.15l1.43.63,1.11-1.02-1.72-1.31c.72-1.75.73-3.48,2.15-4.85-1.51-.01-1.09-1.45-1.68-2.37-1.14-1.8-3.71-1.5-5.55-1.47-.86-.77,2.62-2.78,4.67-1.04.38.32.45,1.67,1.27,1.04.59-.45.16-1.83,2.76-1.72,1.95.08,2.55,2.22,3.19,1.72.59-.45.16-1.83,2.76-1.72,1.96.08,2.54,2.22,3.19,1.72.11-.08.96-1.77,1.71-2.12l-2.54-2.13c-.83,2.94-4.22,2.68-5.33,0h-.63c-.84,2.94-4.22,2.68-5.33,0h-.63c-.84,2.94-4.22,2.68-5.33,0h-.63c-.84,2.94-4.22,2.68-5.33,0h-.63c-.83,2.93-4.21,2.69-5.33,0h-.63c-2.73,5.48-8.84-1.24-2.99-4.04-3.22-.72-3.38-4.97.27-5.29,1.58-.14,2.53.07,2.71,1.8l.84.3c0-3.23,5.13-3.19,5.11,0ZM462.44,56.44l-.84.3c-.06,1.32-.85,1.87-2.13,1.84.91.37,2,2.44,2.13,2.54.64.5,1.83-2.03,2.97-2.34-1.35-.43-2.2-.69-2.13-2.34ZM468.39,56.44l-.84.3c-.06,1.32-.85,1.87-2.13,1.84.91.37,2,2.44,2.13,2.54.64.5,1.83-2.03,2.97-2.34-1.35-.43-2.2-.69-2.13-2.34ZM474.35,56.44l-.84.3c-.06,1.32-.85,1.87-2.13,1.84.91.37,2,2.44,2.13,2.54.64.5,1.83-2.03,2.97-2.34-1.35-.43-2.2-.69-2.13-2.34ZM480.3,56.44l-.84.3c-.06,1.32-.85,1.87-2.13,1.84.91.37,2,2.44,2.13,2.54.64.5,1.83-2.03,2.97-2.34-1.35-.43-2.2-.69-2.13-2.34ZM486.25,56.44l-.84.3c-.06,1.32-.85,1.87-2.13,1.84.91.37,2,2.44,2.13,2.54.64.5,1.83-2.03,2.97-2.34-1.35-.43-2.2-.69-2.13-2.34ZM546.65,63.25c-.79-.7-1.4,2.12-2.54,1.7l1.71,2.12.88-.28,1.67-1.63c-1.19-.02-1.36-1.6-1.71-1.91ZM552.6,63.25c-.79-.7-1.4,2.12-2.54,1.7l1.71,2.12.88-.28,1.67-1.63c-1.19-.02-1.36-1.6-1.71-1.91ZM558.56,63.25c-.79-.7-1.4,2.12-2.54,1.7l1.71,2.12.88-.28,1.67-1.63c-1.19-.02-1.36-1.6-1.71-1.91ZM564.51,63.25c-.79-.7-1.4,2.12-2.54,1.7l1.71,2.12.88-.28,1.67-1.63c-1.19-.02-1.36-1.6-1.71-1.91ZM570.46,63.25c-.79-.7-1.4,2.12-2.54,1.7l1.71,2.12.88-.28,1.67-1.63c-1.19-.02-1.36-1.6-1.71-1.91ZM576.42,63.25c-.79-.7-1.4,2.12-2.54,1.7l1.71,2.12.88-.28,1.67-1.63c-1.19-.02-1.36-1.6-1.71-1.91ZM618.52,63.25c-.79-.7-1.4,2.12-2.54,1.7l1.71,2.12.88-.28,1.67-1.63c-1.19-.02-1.36-1.6-1.71-1.91ZM630.86,63.25c-.79-.7-1.4,2.12-2.54,1.7l1.71,2.12.88-.28,1.67-1.63c-1.19-.02-1.36-1.6-1.71-1.91ZM636.81,63.25c-.79-.7-1.4,2.12-2.54,1.7l1.71,2.12.88-.28,1.67-1.63c-1.19-.02-1.36-1.6-1.71-1.91ZM642.77,63.25c-.79-.7-1.4,2.12-2.54,1.7l1.71,2.12.88-.28,1.67-1.63c-1.19-.02-1.36-1.6-1.71-1.91ZM648.72,63.25c-.79-.7-1.4,2.12-2.54,1.7l1.71,2.12.88-.28,1.67-1.63c-1.19-.02-1.36-1.6-1.71-1.91ZM654.68,63.25c-.79-.7-1.4,2.12-2.54,1.7l1.71,2.12.88-.28,1.67-1.63c-1.19-.02-1.36-1.6-1.71-1.91ZM660.63,63.25c-.79-.7-1.4,2.12-2.54,1.7l1.71,2.12.88-.28,1.67-1.63c-1.19-.02-1.36-1.6-1.71-1.91ZM420.33,69.63c-.79-.68-1.16,1.59-2.12,1.28l1.55,1.66,1.85-1.46c-.89-.01-1.06-1.29-1.28-1.48ZM426.28,69.63c-.79-.68-1.16,1.59-2.12,1.28l1.55,1.66,1.85-1.46c-.89-.01-1.06-1.29-1.28-1.48ZM432.23,69.63c-.79-.68-1.16,1.59-2.12,1.28l1.55,1.66,1.85-1.46c-.89-.01-1.06-1.29-1.28-1.48ZM438.19,69.63c-.79-.68-1.16,1.59-2.12,1.28l1.55,1.66,1.85-1.46c-.89-.01-1.06-1.29-1.28-1.48ZM444.14,69.63c-.79-.68-1.16,1.59-2.12,1.28l1.55,1.66,1.85-1.46c-.89-.01-1.06-1.29-1.28-1.48ZM450.1,69.63c-.79-.68-1.16,1.59-2.12,1.28l1.55,1.66,1.85-1.46c-.89-.01-1.06-1.29-1.28-1.48ZM486.25,69.63c-.79-.68-1.16,1.59-2.12,1.28l1.55,1.66,1.85-1.46c-.89-.01-1.06-1.29-1.28-1.48ZM492.2,69.63c-.79-.68-1.16,1.59-2.12,1.28l1.55,1.66,1.85-1.46c-.89-.01-1.06-1.29-1.28-1.48ZM546.64,69.63c-.79-.68-1.16,1.59-2.12,1.28l1.55,1.66,1.85-1.46c-.89-.01-1.06-1.29-1.28-1.48ZM552.6,69.63c-.79-.68-1.16,1.59-2.12,1.28l1.55,1.66,1.85-1.46c-.89-.01-1.06-1.29-1.28-1.48ZM558.55,69.63c-.79-.68-1.16,1.59-2.12,1.28l1.55,1.66,1.85-1.46c-.89-.01-1.06-1.29-1.28-1.48ZM564.51,69.63c-.79-.68-1.16,1.59-2.12,1.28l1.55,1.66,1.85-1.46c-.89-.01-1.06-1.29-1.28-1.48ZM570.46,69.63c-.79-.68-1.16,1.59-2.12,1.28l1.55,1.66,1.85-1.46c-.89-.01-1.06-1.29-1.28-1.48ZM576.42,69.63c-.79-.68-1.16,1.59-2.12,1.28l1.55,1.66,1.85-1.46c-.89-.01-1.06-1.29-1.28-1.48ZM612.57,69.63c-.79-.68-1.16,1.59-2.12,1.28l1.55,1.66,1.85-1.46c-.89-.01-1.06-1.29-1.28-1.48ZM618.52,69.63c-.79-.68-1.16,1.59-2.12,1.28l1.55,1.66,1.85-1.46c-.89-.01-1.06-1.29-1.28-1.48ZM630.86,69.63c-.79-.68-1.16,1.59-2.12,1.28l1.55,1.66,1.85-1.46c-.89-.01-1.06-1.29-1.28-1.48ZM636.81,69.63c-.79-.68-1.16,1.59-2.12,1.28l1.55,1.66,1.85-1.46c-.89-.01-1.06-1.29-1.28-1.48ZM642.77,69.63c-.79-.68-1.16,1.59-2.12,1.28l1.55,1.66,1.85-1.46c-.89-.01-1.06-1.29-1.28-1.48ZM648.72,69.63c-.79-.68-1.16,1.59-2.12,1.28l1.55,1.66,1.85-1.46c-.89-.01-1.06-1.29-1.28-1.48ZM654.67,69.63c-.79-.68-1.16,1.59-2.12,1.28l1.55,1.66,1.85-1.46c-.89-.01-1.06-1.29-1.28-1.48ZM660.63,69.63c-.79-.68-1.16,1.59-2.12,1.28l1.55,1.66,1.85-1.46c-.89-.01-1.06-1.29-1.28-1.48ZM497.75,75.16l-1.26,1.91,1.47,1.48,1.47-1.48-1.68-1.91ZM582.37,78.98l1.25-1.91-1.66-1.91-1.25,1.91,1.66,1.91ZM624.48,78.98l1.25-1.91-1.66-1.91-1.25,1.91,1.66,1.91Z"/>
          <path d="M419.49,55.16h.83c.84-2.93,4.22-2.67,5.33,0h.63c.83-2.93,4.21-2.69,5.33,0h.63c2.23-5.43,8.86,1.14,3.41,3.41,1.5,1.64,1.9,1.94,1.49,4.24,1.93-1.7,4.55-6.08,6.18-1.7h.83s2.13-2.34,2.13-2.34l-2.12-1.27c1.18-1.12,2.85-1.52,4.34-2.04.4-.14,2-.7,2.22-.76,1.37-.36,2.81-.45,4.23-.41,1.16,1.89.37,4.09-1.86,4.49,5.84,2.78-.24,9.53-2.99,4.05h-.83c-.66,2.82-4.48,2.78-5.12,0h-.63c-1.09,2.65-4.48,2.96-5.33,0-1.27.67-1.58,2.08-3.18,2.17-2.05.12-2.32-1.59-3.03-1.72-.78-.14-1.34,1.48-2.52,1.68-2.39.41-2.66-1.54-3.44-1.68s-1.34,1.48-2.52,1.68c-2.39.41-2.66-1.54-3.44-1.68-.88-.16-2.16,3.19-4.87,1.07-3.43-2.69,1.08-5.49.88-5.77-5.44-2.26,1.17-8.84,3.41-3.41ZM450.1,56.44l-.84.3c-.06,1.32-.85,1.87-2.13,1.84.91.37,2,2.44,2.13,2.54.64.5,1.83-2.03,2.97-2.34-1.35-.43-2.2-.69-2.13-2.34ZM420.33,56.87c-.79-.71-1.4,2.11-2.54,1.71l1.97,2.09,2.28-1.89c-1.19-.02-1.36-1.6-1.71-1.91ZM426.28,56.87c-.79-.71-1.4,2.11-2.54,1.71l1.97,2.09,2.28-1.89c-1.19-.02-1.36-1.6-1.71-1.91ZM432.24,56.87c-.79-.71-1.4,2.11-2.54,1.71l1.97,2.09,2.28-1.89c-1.19-.02-1.36-1.6-1.71-1.91Z"/>
          <path d="M461.6,67.07h.83c.25-1.95,3.13-2.13,4.45-1.23.58.4.69,1.86,1.5,1.23.06-.04.07-.82.67-1.23,1.69-1.15,4.35-.41,4.87,1.66-3.32.23-7.08.57-10.29,1.41-1.26.33-5.34,2.27-5.65,2.27-2.23,0-2.96-5.05.1-5.72,1.43-.31,3.3-.05,3.53,1.61Z"/>
          <circle cx="416.94" cy="50.06" r="2.71"/>
          <circle cx="422.89" cy="50.06" r="2.71"/>
          <circle cx="428.85" cy="50.06" r="2.71"/>
          <circle cx="434.8" cy="50.06" r="2.71"/>
          <circle cx="416.93" cy="44.1" r="2.63"/>
          <circle cx="422.89" cy="44.1" r="2.63"/>
          <circle cx="428.84" cy="44.1" r="2.63"/>
          <circle cx="482.86" cy="50.06" r="2.63"/>
          <circle cx="488.81" cy="50.06" r="2.63"/>
          <circle cx="494.77" cy="50.06" r="2.63"/>
          <path d="M445.73,47.59c2.87-.86,4.85,2.34,2.68,4.38-4.29,2.09-5.8-3.45-2.68-4.38Z"/>
          <circle cx="434.8" cy="44.11" r="2.54"/>
          <circle cx="428.84" cy="38.15" r="2.54"/>
          <circle cx="422.89" cy="38.15" r="2.54"/>
          <circle cx="416.93" cy="38.15" r="2.54"/>
          <path d="M502.37,53.52v4.99c-5.36,1.73-5.4-6.7,0-4.99Z"/>
          <circle cx="494.77" cy="44.1" r="2.36"/>
          <circle cx="488.81" cy="44.1" r="2.36"/>
          <circle cx="482.86" cy="44.1" r="2.36"/>
          <circle cx="452.66" cy="44.1" r="2.36"/>
          <circle cx="446.7" cy="44.1" r="2.36"/>
          <circle cx="440.75" cy="44.1" r="2.36"/>
          <circle cx="434.8" cy="38.15" r="2.36"/>
          <circle cx="428.84" cy="32.2" r="2.26"/>
          <circle cx="422.89" cy="32.2" r="2.26"/>
          <circle cx="416.93" cy="32.2" r="2.26"/>
          <path d="M502,47.51v5.11c-4.64.55-4.64-5.66,0-5.11Z"/>
          <path d="M436.03,30.12c.28.24.68,3.25.28,3.81-.99,1.4-4.94.06-3.43-3.01.42-.86,2.66-1.21,3.15-.8Z"/>
          <circle cx="428.84" cy="26.24" r="2.17"/>
          <circle cx="422.89" cy="26.24" r="2.17"/>
          <path d="M451.69,47.59c1.63-.48,2.56.18,3.52,1.4l-4.47,2.74c-1.36-1.08-.61-3.68.95-4.14Z"/>
          <circle cx="459.04" cy="38.15" r="2.09"/>
          <circle cx="452.66" cy="38.15" r="2.09"/>
          <circle cx="446.7" cy="38.15" r="2.09"/>
          <circle cx="440.75" cy="38.15" r="2.09"/>
          <circle cx="476.9" cy="38.15" r="2.09"/>
          <circle cx="482.86" cy="38.15" r="2.09"/>
          <circle cx="488.81" cy="38.15" r="2.09"/>
          <circle cx="494.77" cy="38.15" r="2.09"/>
          <circle cx="470.95" cy="38.15" r="2.09"/>
          <circle cx="464.99" cy="38.15" r="2.09"/>
          <path d="M458.06,42.06c1.29-.39,2.85-.06,3.12,1.41l-3.15,2.74c-1.54-.71-1.63-3.65.04-4.15Z"/>
          <path d="M443.3,51.33c-1.97,0-3.46-1.42-4.67-2.76,2.31-2.58,5.35-.44,4.67,2.76Z"/>
          <path d="M474.78,50.91c1.82,0,3.19-1.17,3.41-2.98,3.95,2.61-1.83,7.41-3.41,2.98Z"/>
          <path d="M501.57,41.56c-.13,1.42.19,3.09,0,4.47-.08.59.23.74-.63.62-3.22-1.48-2.76-4.4.63-5.1Z"/>
          <path d="M421.61,21.56c.94-1.53-1.51-3.48,1.14-3.73,3.11-.3,2.64,5.37-1.14,3.73Z"/>
          <path d="M477.76,46.23c-.36-1.24-1.17-2.8-2.56-2.98,1.45-4.03,6.56.93,2.56,2.98Z"/>
          <circle cx="494.77" cy="32.2" r="1.72"/>
          <circle cx="488.81" cy="32.2" r="1.72"/>
          <circle cx="482.86" cy="32.2" r="1.72"/>
          <circle cx="476.9" cy="32.2" r="1.72"/>
          <circle cx="470.95" cy="32.2" r="1.72"/>
          <circle cx="464.99" cy="32.2" r="1.72"/>
          <circle cx="459.04" cy="32.2" r="1.72"/>
          <circle cx="452.66" cy="32.2" r="1.72"/>
          <circle cx="446.71" cy="32.2" r="1.72"/>
          <circle cx="422.89" cy="13.91" r="1.72"/>
          <circle cx="428.84" cy="13.91" r="1.72"/>
          <path d="M441.03,30.56c.55-.15.88-.13,1.22.35.76,2.35-.01,3.49-2.49,2.92-1.79-.65.45-3.04,1.28-3.27Z"/>
          <path d="M418.61,24.56c1.22,3-.39,4.52-3.37,3.37.7-.76,2.16-4.15,3.37-3.37Z"/>
          <path d="M416.31,12.21c2.37-.6,3,2.69,1.68,2.97-.8.17-3.12-2.61-1.68-2.97Z"/>
          <circle cx="422.89" cy="7.95" r="1.36"/>
          <circle cx="416.93" cy="7.95" r="1.36"/>
          <circle cx="488.81" cy="26.24" r="1.36"/>
          <circle cx="428.84" cy="7.95" r="1.36"/>
          <path d="M501.14,40.28c-2.12-.4-2.97-2.56-1.06-3.82l1.06,3.82Z"/>
          <polygon points="435.65 6.68 435.65 9.23 433.93 9.04 433.56 8.55 433.7 7.07 435.65 6.68"/>
        </g>
      </g>
    </g>
  </g>
</svg>