<?xml version="1.0" encoding="UTF-8"?>
<svg id="Layer_1" data-name="Layer 1" xmlns="http://www.w3.org/2000/svg" viewBox="0 0 224.04 223.9">
  <defs>
    <style>
      .cls-1 {
        fill: #2a31ae;
      }

      .cls-2 {
        fill: #e72b2d;
      }

      .cls-3 {
        fill: #e72a2c;
      }

      .cls-4 {
        fill: #f6f6f6;
      }

      .cls-5 {
        fill: #f4f4f8;
      }

      .cls-6 {
        fill: #fafafa;
      }
    </style>
  </defs>
  <g id="uKNekH.tif">
    <circle class="cls-4" cx="112.49" cy="111.77" r="111.55"/>
    <g>
      <rect class="cls-5" x="102.04" width="8" height=".5"/>
      <rect class="cls-5" x="114.04" width="8" height=".5"/>
      <g>
        <g>
          <path class="cls-3" d="M16.04,168c-1.98-.31-4.66-6.67-5.59-8.66-2.89-6.19-5.1-12.76-6.91-19.34h217c-2.47,8.73-5.64,17.73-10.1,25.65-.56,1-1.56,1.78-1.9,2.35H16.04Z"/>
          <path class="cls-6" d="M208.54,168c-6.41,10.66-13.33,19.51-22.5,28H38.04c-6.83-6.33-14.78-15.15-19.71-23.04-.93-1.48-2.21-3.15-2.29-4.96h192.5Z"/>
          <path class="cls-2" d="M186.04,196c-40.18,37.21-107.84,37.19-148,0h148Z"/>
        </g>
        <g>
          <g>
            <path class="cls-3" d="M220.04,84c.47,1.72,1.35,3.49,1.77,5.48,1.53,7.25,2.12,15.12,2.24,22.52-40.99-.02-82.01.01-123,0v-28h119Z"/>
            <path class="cls-6" d="M208.54,56c5.6,9.95,8.49,16.91,11.5,28h-119c0-9.33,0-18.67,0-28h107.5Z"/>
            <path class="cls-3" d="M208.54,56h-107.5c0-9.33.02-18.67,0-28l85.15.1c6.91,6.37,13.58,13.37,18.76,21.24,1.45,2.21,2.38,4.49,3.59,6.66Z"/>
          </g>
          <g>
            <path class="cls-1" d="M3.04,86c2.09-8.77,5.14-16.9,9.01-25l5.48,3.26c-.36-1.61-2.32-5.5-1.92-6.9.34-1.2,4.95-3.37,5.93-4.61l-4.5-.25c5.85-9.63,13.57-17.82,21.76-25.49,1.71-.71-.33,3.68-.01,3.99,1.39-.66,4.72-3.93,6-3.97s6.02,4.27,6.25,3.98c.25-1.84-2.3-5.71-1.93-7.16.34-1.32,5.14-3.38,5.93-4.84l-5-.25C65.06,8.52,82.87,2.21,101.04.5c.01,9.16-.02,18.34,0,27.5s0,18.67,0,28,0,18.67,0,28v28c-33.66-.01-67.34,0-101,0-.25-8.09.8-16.14,2.5-24,.74.24,4.5,2.56,4.54,2.82.23,1.49-2.28,5.28-2.04,7.17.6.66,5.06-3.83,6.25-3.83s4.49,3.82,6.25,3.83c.45-.47-2.2-6.09-2.04-7.17.06-.41,5.67-3.55,6.04-4.83h-8l-2.25-7.51c-.62-.01-1.91,6.73-2.73,7.28-1.02.68-4.15,0-5.52.23ZM81.04,19c-.41,0-1.48-7.11-2.99-7.5l-2.01,7.5h-8c.86,1.38,5.56,3.56,5.94,4.85.59,2.05-2.14,4.99-1.68,7.15,1.65-.26,4.75-3.96,5.98-4s5.94,4.41,6.26,3.99c.53-1.74-2.19-6.11-1.93-7.2.2-.85,5.45-3.28,5.93-4.8h-7.5ZM55.04,52.5h-7.25c-.84,0-2.43-7.52-3-7.51l-2.25,7.51h-8c.61,1.61,5.61,3.68,5.95,4.83.51,1.73-2.56,5.23-1.7,7.18,1.8-.38,4.5-3.79,6.08-3.94.88-.08,5.63,4.51,6.16,3.93.25-1.9-2.27-5.68-2.04-7.17.06-.41,5.67-3.55,6.04-4.83ZM88.54,52.5h-7.25c-1.87-2-1.15-5.8-3.24-7.5l-2.01,7.5h-8c.78,1.61,5.56,3.5,5.93,4.85.41,1.46-1.5,5.03-1.93,6.64,2.09.59,5.21-3.65,6.66-3.39,1.21.22,4.75,3.6,6.09,4.39l-2.28-7.7c.03-.41,5.79-3.4,6.03-4.79ZM55.04,86h-7.25c-.84,0-2.43-7.52-3-7.51l-2.25,7.51h-8c.37,1.28,5.97,4.41,6.04,4.83.17,1.08-2.49,6.72-2.04,7.17,1.89.16,4.87-3.84,6.25-3.83s4.36,3.53,5.99,3.84c.75-1.9-2.04-5.55-1.78-7.18.06-.38,5.81-3.38,6.04-4.82ZM89.04,86h-7.75c-1.87-2-1.15-5.8-3.24-7.5l-2.01,7.5h-8c.58,1.64,5.61,3.8,5.95,4.84.51,1.58-2.54,6.88-1.94,7.66l6.67-4.44,6.08,4.43c.11-2.24-2.28-5.63-1.68-7.64.42-1.4,5.11-3.21,5.92-4.85Z"/>
            <path class="cls-5" d="M3.04,86c1.38-.23,4.5.45,5.52-.23.82-.55,2.11-7.29,2.73-7.28l2.25,7.51h8c-.37,1.28-5.97,4.41-6.04,4.83-.17,1.08,2.49,6.7,2.04,7.17-1.75-.01-5.06-3.84-6.25-3.83s-5.64,4.49-6.25,3.83c-.25-1.9,2.27-5.69,2.04-7.17-.04-.26-3.8-2.58-4.54-2.82.16-.72.34-1.33.5-2Z"/>
            <path class="cls-5" d="M55.04,86c-.23,1.45-5.98,4.44-6.04,4.82-.25,1.63,2.53,5.29,1.78,7.18-1.64-.31-4.64-3.84-5.99-3.84s-4.36,4-6.25,3.83c-.46-.45,2.2-6.09,2.04-7.17-.06-.41-5.67-3.55-6.04-4.83h8l2.25-7.51c.57-.01,2.16,7.51,3,7.51h7.25Z"/>
            <path class="cls-5" d="M55.04,52.5c-.37,1.28-5.97,4.41-6.04,4.83-.23,1.49,2.28,5.27,2.04,7.17-.53.58-5.28-4.01-6.16-3.93-1.58.15-4.28,3.55-6.08,3.94-.86-1.95,2.21-5.45,1.7-7.18-.34-1.15-5.34-3.22-5.95-4.83h8l2.25-7.51c.57-.01,2.16,7.51,3,7.51h7.25Z"/>
            <path class="cls-5" d="M81.04,19h7.5c-.49,1.53-5.73,3.96-5.93,4.8-.26,1.09,2.46,5.46,1.93,7.2-.32.41-4.98-4.04-6.26-3.99s-4.33,3.74-5.98,4c-.46-2.16,2.27-5.1,1.68-7.15-.37-1.29-5.07-3.47-5.94-4.85h8l2.01-7.5c1.51.39,2.59,7.5,2.99,7.5Z"/>
            <path class="cls-5" d="M88.54,52.5c-.23,1.39-5.99,4.38-6.03,4.79l2.28,7.7c-1.35-.79-4.88-4.17-6.09-4.39-1.46-.26-4.57,3.98-6.66,3.39.43-1.62,2.34-5.18,1.93-6.64-.38-1.35-5.15-3.24-5.93-4.85h8l2.01-7.5c2.1,1.7,1.37,5.5,3.24,7.5h7.25Z"/>
            <path class="cls-5" d="M89.04,86c-.81,1.64-5.51,3.45-5.92,4.85-.6,2.01,1.79,5.39,1.68,7.64l-6.08-4.43-6.67,4.44c-.6-.78,2.45-6.08,1.94-7.66-.34-1.04-5.36-3.19-5.95-4.84h8l2.01-7.5c2.1,1.7,1.37,5.5,3.24,7.5h7.75Z"/>
          </g>
        </g>
      </g>
    </g>
  </g>
</svg>